<?xml version="1.0" encoding="UTF-8" standalone="no"?>
<!DOCTYPE svg PUBLIC "-//W3C//DTD SVG 1.1//EN" "http://www.w3.org/Graphics/SVG/1.1/DTD/svg11.dtd">
<svg width="100%" height="100%" viewBox="0 0 53 48" version="1.1" xmlns="http://www.w3.org/2000/svg" xmlns:xlink="http://www.w3.org/1999/xlink" xml:space="preserve" xmlns:serif="http://www.serif.com/" style="fill-rule:evenodd;clip-rule:evenodd;stroke-linejoin:round;stroke-miterlimit:2;">
    <g transform="matrix(1,0,0,1,-8404.06,-3929.19)">
        <g transform="matrix(1.17732,0,0,1,0,0)">
            <g transform="matrix(0.849386,0,0,1,381.232,9.85583)">
                <path d="M7979.25,3965.46C7980.12,3966.12 7981.26,3966.26 7981.26,3966.26C7981.64,3966.34 7981.94,3966.39 7982.21,3966.23C7982.61,3966.04 7983.02,3965.74 7983.36,3965.44L7983.36,3965.44L7983.36,3965.44L7983.36,3965.44C7983.61,3965.21 7995.42,3954.51 8002.53,3946.5C8006.84,3941.65 8008.19,3936.24 8007.3,3931.55C8006.38,3926.71 8003.06,3922.52 7997.67,3920.33C7992.17,3918.09 7987.32,3919.95 7983.87,3922.5C7982.93,3923.19 7982.1,3923.93 7981.4,3924.63C7980.7,3923.93 7979.86,3923.19 7978.92,3922.5C7975.47,3919.95 7970.62,3918.09 7965.12,3920.33C7959.73,3922.52 7956.41,3926.71 7955.49,3931.55C7954.6,3936.24 7955.95,3941.65 7960.26,3946.5C7967.37,3954.51 7978.9,3965.2 7979.13,3965.41L7979.13,3965.41L7979.13,3965.41L7979.13,3965.41L7979.25,3965.46ZM7979.25,3965.46L7979.25,3965.46L7979.25,3965.46M7979.25,3965.46L7979.25,3965.46L7979.25,3965.46L7979.25,3965.46L7979.25,3965.46ZM7978.82,3931.2L7978.8,3931.16C7978.8,3931.16 7977.45,3929.17 7975.22,3927.53C7973.27,3926.1 7970.57,3924.86 7967.48,3926.12C7964.26,3927.43 7962.18,3929.84 7961.63,3932.72C7961.05,3935.76 7962.14,3939.2 7964.93,3942.35C7970.1,3948.17 7977.65,3955.43 7981.28,3958.86C7984.98,3955.44 7992.69,3948.17 7997.86,3942.35C8000.65,3939.2 8001.74,3935.76 8001.16,3932.72C8000.61,3929.84 7998.53,3927.43 7995.32,3926.12C7992.22,3924.86 7989.52,3926.1 7987.57,3927.53C7985.34,3929.17 7983.99,3931.16 7983.99,3931.16L7983.96,3931.2L7983.92,3931.27L7983.91,3931.28L7983.9,3931.3L7983.87,3931.34L7983.83,3931.39L7983.81,3931.41L7983.8,3931.42L7983.76,3931.47L7983.73,3931.51L7983.72,3931.52L7983.7,3931.54L7983.65,3931.59L7983.62,3931.62L7983.61,3931.63L7983.59,3931.65L7983.52,3931.72L7983.51,3931.73L7983.51,3931.73L7983.48,3931.76L7983.39,3931.83C7983.23,3931.97 7983.05,3932.09 7982.87,3932.18L7982.85,3932.19L7982.77,3932.23C7982.38,3932.42 7981.98,3932.52 7981.57,3932.55L7981.54,3932.55L7981.46,3932.55L7981.4,3932.55L7981.39,3932.55L7981.39,3932.55L7981.35,3932.55C7980.89,3932.54 7980.43,3932.44 7980.01,3932.22L7979.94,3932.19L7979.93,3932.19L7979.91,3932.18C7979.73,3932.08 7979.56,3931.97 7979.4,3931.83L7979.32,3931.76L7979.29,3931.73L7979.28,3931.73L7979.26,3931.71L7979.2,3931.65L7979.18,3931.63L7979.17,3931.62L7979.14,3931.59L7979.09,3931.54L7979.08,3931.52L7979.06,3931.51L7979.03,3931.46L7978.99,3931.42L7978.98,3931.41L7978.96,3931.39L7978.92,3931.33L7978.89,3931.3L7978.88,3931.28L7978.87,3931.27L7978.82,3931.2Z" style="fill:rgb(249,180,38);"/>
            </g>
        </g>
    </g>
</svg>
