<svg width="24" height="24" viewBox="0 0 24 24" fill="none" xmlns="http://www.w3.org/2000/svg">
<path d="M12 1.00001C9.87002 1.00001 8.34002 1.02467 7.41002 1.07401C6.58511 1.10455 5.76793 1.24478 4.98002 1.49101C4.17702 1.77701 3.45002 2.23901 2.84002 2.84101C2.23002 3.44301 1.78002 4.17001 1.49002 4.98001C1.24379 5.76791 1.10356 6.58509 1.07302 7.41001C1.02302 8.34401 0.999023 9.87001 0.999023 12C0.999023 14.13 1.02369 15.66 1.07302 16.59C1.10302 17.415 1.24302 18.23 1.49002 19.02C1.77705 19.824 2.23802 20.5547 2.84002 21.16C3.43602 21.76 4.17002 22.21 4.98002 22.46C5.76102 22.74 6.58002 22.897 7.41002 22.926C8.34302 22.976 9.87002 23 12 23C14.13 23 15.66 22.9753 16.59 22.926C17.4149 22.8955 18.2321 22.7552 19.02 22.509C19.824 22.222 20.5547 21.761 21.16 21.159C21.762 20.5537 22.223 19.823 22.51 19.019C22.757 18.231 22.897 17.409 22.927 16.589C22.977 15.656 23.001 14.129 23.001 11.999C23.001 9.86901 22.985 8.34901 22.952 7.42901C22.9081 6.59375 22.7597 5.76729 22.51 4.96901C22.223 4.16501 21.762 3.4343 21.16 2.82901C20.5547 2.227 19.824 1.76603 19.02 1.47901C18.2321 1.23278 17.4149 1.09255 16.59 1.06201C15.657 1.01201 14.13 0.988007 12 0.988007V1.00001ZM11.214 21C9.90402 21 8.89402 20.984 8.17402 20.951C7.27735 20.9359 6.38648 20.8038 5.52402 20.558C5.04388 20.372 4.60785 20.0878 4.24384 19.7236C3.87982 19.3594 3.59583 18.9232 3.41002 18.443C3.16422 17.5805 3.0321 16.6897 3.01702 15.793C2.98402 15.073 2.96702 14.053 2.96702 12.753V11.183C2.96702 9.87301 2.98402 8.86301 3.01702 8.14301C3.0261 7.24585 3.15834 6.35419 3.41002 5.49301C3.58689 5.00833 3.86755 4.56818 4.23237 4.20336C4.59719 3.83854 5.03735 3.55787 5.52202 3.38101C6.38448 3.1352 7.27535 3.00308 8.17202 2.98801C8.89202 2.95501 9.91202 2.93801 11.212 2.93801H12.782C14.092 2.93801 15.102 2.95501 15.822 2.98801C16.7192 2.99708 17.6108 3.12932 18.472 3.38101C18.9569 3.55775 19.3972 3.83836 19.7622 4.20318C20.1272 4.56801 20.4081 5.00823 20.585 5.49301C20.836 6.35501 20.968 7.24301 20.978 8.14301C21.01 8.83034 21.0264 9.84367 21.027 11.183V12.753C21.027 14.063 21.01 15.073 20.978 15.793C20.962 16.69 20.83 17.583 20.585 18.443C20.3962 18.9218 20.1122 19.3573 19.75 19.723C19.3861 20.0874 18.9501 20.3718 18.47 20.558C17.6083 20.8073 16.717 20.9395 15.82 20.951C15.1334 20.9843 14.12 21.0007 12.78 21H11.21H11.214ZM17.894 4.70001C17.6225 4.6997 17.3571 4.78006 17.1314 4.93089C16.9056 5.08172 16.7298 5.29622 16.6262 5.54715C16.5226 5.79809 16.4958 6.07415 16.5494 6.3403C16.603 6.60645 16.7344 6.85069 16.927 7.04201C17.0519 7.17265 17.2022 7.27627 17.3687 7.34645C17.5352 7.41663 17.7143 7.45187 17.895 7.45001C18.0722 7.45335 18.2481 7.41865 18.4108 7.34827C18.5734 7.27789 18.7191 7.17346 18.838 7.04201C19.0876 6.77806 19.24 6.43704 19.27 6.07501C19.2651 5.71169 19.1185 5.36466 18.8615 5.10783C18.6045 4.851 18.2573 4.70466 17.894 4.70001ZM12.004 6.47001C11.0372 6.46349 10.0867 6.7196 9.25402 7.21101C8.42033 7.69442 7.72744 8.38731 7.24402 9.22101C6.75834 10.0561 6.50249 11.0049 6.50249 11.971C6.50249 12.9371 6.75834 13.8859 7.24402 14.721C7.72632 15.5556 8.41947 16.2487 9.25402 16.731C10.0891 17.2167 11.038 17.4725 12.004 17.4725C12.9701 17.4725 13.9189 17.2167 14.754 16.731C15.5886 16.2487 16.2817 15.5556 16.764 14.721C17.2497 13.8859 17.5056 12.9371 17.5056 11.971C17.5056 11.0049 17.2497 10.0561 16.764 9.22101C16.2806 8.38731 15.5877 7.69442 14.754 7.21101C13.9213 6.7196 12.9709 6.46349 12.004 6.47001ZM12.004 15.51C11.5394 15.5097 11.0794 15.4177 10.6503 15.2392C10.2213 15.0608 9.83178 14.7994 9.50402 14.47C8.83976 13.8074 8.4657 12.9082 8.46402 11.97C8.46431 11.5054 8.55632 11.0453 8.73479 10.6163C8.91326 10.1873 9.17467 9.79776 9.50402 9.47001C10.1666 8.80574 11.0658 8.43168 12.004 8.43001C12.4687 8.43029 12.9287 8.52231 13.3577 8.70077C13.7867 8.87924 14.1763 9.14065 14.504 9.47001C15.1683 10.1326 15.5423 11.0318 15.544 11.97C15.5437 12.4347 15.4517 12.8947 15.2733 13.3237C15.0948 13.7527 14.8334 14.1423 14.504 14.47C13.8414 15.1343 12.9422 15.5083 12.004 15.51Z" fill="#F2A413"/>
</svg>
