<?xml version="1.0" encoding="UTF-8" standalone="no"?>
<!DOCTYPE svg PUBLIC "-//W3C//DTD SVG 1.1//EN" "http://www.w3.org/Graphics/SVG/1.1/DTD/svg11.dtd">
<svg width="100%" height="100%" viewBox="0 0 369 602" version="1.1" xmlns="http://www.w3.org/2000/svg" xmlns:xlink="http://www.w3.org/1999/xlink" xml:space="preserve" xmlns:serif="http://www.serif.com/" style="fill-rule:evenodd;clip-rule:evenodd;stroke-linejoin:round;stroke-miterlimit:2;">
    <g transform="matrix(1,0,0,1,-9412.06,-5266.86)">
        <g transform="matrix(1.59504,0,0,1.30688,0,0)">
            <g transform="matrix(0.738112,0,0,0.765181,1835.75,1563.09)">
                <g transform="matrix(0.849386,0,0,1,4251.1,2384.17)">
                    <path d="M1779.95,1361.99L1779.95,1428.21C1779.95,1428.21 1779.13,1445.5 1807.13,1437.44L1807.13,1406.36L1835.23,1406.36C1835.23,1406.36 1847.75,1402.65 1839.9,1384.73L1806.6,1384.73L1806.6,1368.18L1839.9,1368.18C1839.9,1368.18 1853.48,1365.04 1844.78,1347.02L1790.8,1347.02C1790.8,1347.02 1780.35,1347.34 1779.95,1361.99Z"/>
                </g>
                <g transform="matrix(0.849386,0,0,1,5305.84,3282.78)">
                    <path d="M261.315,456.27L261.315,526.733C261.315,526.733 259.788,538.532 281,541.184C302.212,543.835 328.726,542.775 337.211,524.347C345.696,505.919 331.61,492.939 323.158,490.673C320.358,489.922 322.552,489.824 323.803,489.769C325.054,489.713 339.761,485.335 336.897,467.729C334.034,450.123 311.761,445.563 297.125,445.563C282.489,445.563 262.837,446.827 261.315,456.27ZM287.319,502.322L287.319,520.055C287.319,520.055 310.821,524.976 312.009,511.825C313.197,498.673 288.761,502.322 287.319,502.322ZM287.283,466.36L287.283,483.224C287.283,483.224 309.513,486.554 310.035,475.463C310.556,464.372 291.986,465.699 287.283,466.36Z"/>
                </g>
                <g transform="matrix(0.849386,0,0,1,4966.3,3546.16)">
                    <path d="M847.394,195.873L847.725,264.315C847.725,264.315 843.417,283.124 874.737,275.832L874.737,247.826L881.532,247.826L896.281,270.529C896.281,270.529 909.786,291.931 927.104,267.381L906.721,241.363C906.721,241.363 924.453,231.42 923.127,212.86C921.801,194.299 906.731,179.904 880.869,181.207C856.094,182.456 847.172,185.7 847.394,195.873ZM874.177,204.465L874.177,225.995C874.177,225.995 894.01,229.283 895.07,215.813C896.142,202.196 877.04,203.934 874.177,204.465Z"/>
                </g>
                <g transform="matrix(0.849386,0,0,1,-2487.08,-2042.77)">
                    <path d="M9484.18,5703.76C9484.01,5705.09 9483.15,5707.02 9481.04,5708.84C9478.11,5711.37 9472.16,5714.41 9463.94,5715.26C9444.26,5717.28 9439.21,5708.23 9438.53,5706.75C9425.48,5685.08 9412.18,5629.77 9412.18,5629.77C9411.96,5628.85 9412.06,5627.88 9412.46,5627.03C9413.75,5624.3 9416.24,5621.91 9419.52,5620.17C9423.73,5617.94 9429.25,5616.75 9434.26,5617C9440.78,5617.32 9446.28,5620.18 9448.35,5625.16C9450.66,5630.75 9455.72,5648.96 9459.43,5663.1C9460.51,5652.74 9461.74,5642.15 9462.31,5639.73C9462.45,5639.13 9462.81,5638.17 9463.84,5637.23C9464.71,5636.43 9466.95,5635.03 9470,5633.78C9474,5632.15 9479.45,5630.68 9484.52,5630.88C9490.51,5631.12 9495.95,5633.55 9498.86,5639.74C9502.09,5646.61 9505,5653.99 9507.34,5660.19C9507.18,5642.02 9506.66,5615.18 9506.66,5615.18C9506.64,5614.36 9506.87,5613.55 9507.31,5612.86C9509.73,5609.08 9516.38,5606.15 9523.36,5605.89C9530.43,5605.63 9537.42,5608.08 9540.38,5613.06C9540.96,5614.05 9541.53,5615.72 9541.9,5618.01C9542.51,5621.9 9542.74,5628.09 9542.67,5635.38C9542.64,5637.86 9542.58,5640.48 9542.5,5643.19C9545.59,5641.37 9556.94,5635.99 9578.83,5639.21C9579.02,5639.23 9579.21,5639.26 9579.4,5639.29C9584.81,5638.22 9612,5633.44 9638.74,5639.33C9639.39,5639.22 9640.06,5639.11 9640.74,5639.01C9666.83,5635.19 9677.95,5643.56 9677.95,5643.56C9679.11,5644.11 9680.19,5644.75 9681.19,5645.46C9682.33,5635.27 9683.29,5627.21 9683.62,5625.9C9684.77,5621.28 9686.17,5616.6 9691.79,5611.67C9705.56,5599.59 9724.1,5602.46 9726.41,5602.88C9740.61,5604.52 9746.19,5609.83 9748.04,5614.85C9749.59,5619.07 9748.71,5623.6 9747,5627.22C9745.27,5630.87 9742.71,5633.5 9741.62,5634.18C9739.81,5635.32 9738.09,5635.53 9736.07,5635.09C9734.06,5634.65 9731.4,5632.85 9726.14,5632.09C9721.08,5631.36 9718.18,5632.17 9716.62,5633.95C9715.91,5634.77 9715.5,5635.72 9715.27,5636.61L9735.68,5638.88C9737.35,5639.07 9738.76,5640.25 9739.22,5641.87C9742.05,5651.7 9740.72,5657.35 9738.67,5660.6C9734.78,5666.76 9727.52,5666.08 9727.52,5666.08C9727.5,5666.08 9727.47,5666.07 9727.45,5666.07C9727.45,5666.07 9713.46,5664.52 9713.46,5664.52C9713.46,5664.52 9708.66,5707.77 9708.66,5707.77C9708.44,5709.69 9706.93,5711.22 9705.01,5711.45C9688.95,5713.36 9681.93,5709.3 9678.76,5705.48C9677.6,5704.07 9676.87,5702.6 9676.42,5701.23C9658.62,5709.48 9636.57,5694.03 9625.66,5677.52C9620.19,5669.23 9616.91,5661.75 9617.2,5655.57C9614.84,5653.39 9612.63,5652.42 9610.62,5652.23C9606.74,5651.87 9603.75,5654.38 9602.36,5655.85C9602.62,5662.01 9599.35,5669.46 9593.9,5677.71C9590.46,5682.92 9585.92,5688.02 9580.75,5692.3C9601.82,5689.12 9610.55,5701.92 9608.07,5712.33C9606.52,5718.87 9603.7,5721.04 9601.79,5721.9C9598.48,5723.38 9595.85,5721.86 9595.85,5721.86C9595.64,5721.76 9595.45,5721.64 9595.26,5721.5C9595.26,5721.5 9593.77,5720.55 9591.12,5720.45C9589.37,5720.37 9588.27,5720.39 9587.73,5721.05C9587.23,5721.66 9587.5,5722.52 9587.61,5723.2C9587.72,5723.81 9587.88,5724.35 9588.01,5724.74C9588.01,5724.74 9605.35,5741.81 9605.35,5741.81C9605.55,5737.63 9605.29,5733.49 9605.29,5733.49C9605.22,5732.01 9605.94,5730.6 9607.19,5729.8C9607.39,5729.67 9607.59,5729.56 9607.8,5729.47C9608.66,5728.92 9613.51,5726.12 9622.17,5726.84C9626.59,5727.21 9629.69,5728.89 9631.87,5731.27C9634.85,5734.54 9636.08,5739.4 9635.95,5744.79C9635.75,5752.95 9632.52,5762.36 9630.78,5766.88L9640.78,5776.89C9641.94,5778.04 9642.31,5779.77 9641.74,5781.3C9637.84,5791.61 9632.45,5795.56 9627.77,5796.92C9620.08,5799.16 9613.34,5794.36 9613.34,5794.36C9613.15,5794.23 9612.98,5794.08 9612.82,5793.92C9612.82,5793.92 9608.93,5790.03 9608.93,5790.03C9605.94,5792.11 9600.76,5794.68 9592.3,5796.15L9592.1,5796.18L9592.28,5796.75C9600.02,5820.82 9610.43,5861.39 9610.43,5861.39C9590.05,5874.64 9581.79,5860.33 9581.79,5860.33L9578.51,5845.69L9551.78,5846.01L9547.43,5864.67C9528.44,5871.67 9520.07,5864.52 9521.87,5852.43C9523.48,5841.65 9541.35,5791.25 9545.22,5780.44L9545.15,5780.33C9539.53,5770.53 9539.53,5758.73 9541.75,5751.47C9544.66,5741.89 9551.93,5736.11 9557.14,5733.07C9556.26,5731.77 9555.41,5730.17 9554.7,5728.21C9552.42,5721.82 9553.06,5711.21 9559.72,5703.1C9554.03,5704.25 9548.32,5703.87 9542.99,5701.35C9541.04,5700.44 9539.25,5699.16 9537.63,5697.59C9537.55,5697.84 9537.48,5698.04 9537.41,5698.18C9536.33,5700.41 9534.13,5702.58 9531.23,5704.35C9527.66,5706.54 9522.97,5708.23 9518.87,5709.07C9511.56,5710.56 9499.67,5711.32 9493.05,5702.37C9490.97,5699.55 9488.41,5693.93 9486.11,5688.28C9485.16,5696.28 9484.18,5703.78 9484.18,5703.78L9484.18,5703.76ZM9565.87,5796.06C9565.87,5796.06 9571.57,5819.12 9574.35,5824.69L9556.72,5824.69C9556.72,5824.69 9564.01,5803.74 9565.87,5796.06ZM9551.41,5774.44C9547.97,5767.27 9548.14,5759.07 9549.72,5753.9C9553.26,5742.24 9564.23,5738.44 9564.23,5738.44C9564.23,5738.44 9566.4,5737.83 9567.45,5736.06C9568.37,5734.49 9568.27,5732.14 9566.19,5730.6C9565.81,5730.31 9563.81,5728.92 9562.55,5725.4C9560.04,5718.4 9563.22,5704.59 9579.04,5701.09C9588.53,5698.99 9595.04,5700.5 9598.27,5704.05C9599.91,5705.85 9600.5,5708.16 9599.97,5710.4C9599.61,5711.88 9598.97,5713.17 9598.6,5713.84C9597.14,5713.12 9594.73,5712.25 9591.46,5712.12C9585.98,5711.9 9582.99,5713.7 9581.29,5715.75C9579.55,5717.87 9579.02,5720.59 9579.22,5723.14C9579.45,5726.17 9580.68,5728.83 9580.68,5728.83C9580.89,5729.29 9581.18,5729.7 9581.54,5730.06L9605.17,5753.32C9606.16,5754.29 9607.56,5754.71 9608.92,5754.43C9610.28,5754.16 9611.41,5753.23 9611.94,5751.94C9613.49,5748.22 9613.68,5740.2 9613.66,5735.92C9615.23,5735.35 9617.73,5734.83 9621.48,5735.15C9623.38,5735.3 9624.78,5735.87 9625.72,5736.89C9627.39,5738.73 9627.69,5741.56 9627.62,5744.58C9627.38,5754.37 9622.07,5766.18 9622.07,5766.18C9621.37,5767.75 9621.71,5769.6 9622.93,5770.82L9632.92,5780.81C9630.64,5785.78 9628.07,5788.15 9625.44,5788.92C9622.18,5789.87 9619.26,5788.27 9618.43,5787.74C9618.43,5787.74 9612.07,5781.38 9612.07,5781.38C9612.07,5781.38 9610.93,5780.02 9609.07,5779.98C9607.52,5779.94 9605.82,5781.78 9605.82,5781.78C9605.82,5781.78 9600.96,5786.39 9589.5,5788.15L9589.36,5788.17L9588.36,5788.35C9572.91,5790.42 9562.93,5787.37 9556.82,5781.81C9554.44,5779.64 9552.67,5777.11 9551.41,5774.44ZM9569.33,5771.66L9568.88,5771.25C9564.33,5766.65 9564.47,5760.73 9566.49,5755.73C9568.42,5750.93 9572.17,5747.26 9573.95,5746.45C9575.53,5745.74 9577.38,5746.08 9578.61,5747.31L9597.95,5766.65C9598.89,5767.59 9599.33,5768.92 9599.13,5770.23C9598.92,5771.54 9598.11,5772.68 9596.93,5773.29C9596.93,5773.29 9590.91,5776.43 9583.93,5776.74L9582.89,5776.74C9578.25,5776.78 9573.34,5775.5 9569.33,5771.66ZM9575.73,5756.22L9587.4,5767.88C9586.22,5768.15 9584.92,5768.35 9583.57,5768.41C9580.61,5768.54 9577.35,5767.98 9574.81,5765.4C9572.91,5763.47 9573.37,5760.94 9574.21,5758.84C9574.57,5757.96 9575.15,5757.03 9575.73,5756.22ZM9533.89,5649.88C9526.05,5659.59 9525.85,5675.6 9530.94,5687.5C9530.48,5691.05 9529.92,5694.2 9529.83,5694.69C9529.29,5695.66 9528.16,5696.46 9526.88,5697.25C9524.08,5698.96 9520.41,5700.25 9517.2,5700.9C9514.53,5701.45 9511,5702 9507.52,5701.57C9504.64,5701.21 9501.76,5700.13 9499.75,5697.42C9494.92,5690.87 9488.51,5670.37 9487.56,5668.38C9485.85,5664.78 9482.38,5666 9481.82,5666.28C9481.42,5666.48 9479.09,5667.61 9479.57,5670.85C9479.95,5673.38 9476.55,5698.16 9476,5702.13C9475.68,5702.42 9474.85,5703.15 9474.03,5703.64C9471.57,5705.12 9467.81,5706.48 9463.09,5706.97C9450.51,5708.26 9446.04,5703.05 9445.96,5702.97C9445.91,5702.86 9445.85,5702.76 9445.79,5702.66C9434.45,5684.04 9422.99,5638.86 9420.69,5629.53L9420.69,5629.53C9421.38,5628.76 9422.35,5628.11 9423.42,5627.53C9426.4,5625.95 9430.31,5625.15 9433.84,5625.32C9436.83,5625.47 9439.7,5626.07 9440.65,5628.36C9444.34,5637.25 9455.29,5679.46 9455.59,5681.94C9455.76,5683.43 9456.23,5686.08 9456.68,5687.47C9456.96,5688.31 9457.31,5688.93 9457.57,5689.3C9458.58,5690.67 9459.84,5691.04 9460.8,5691.1C9462.03,5691.19 9463.43,5690.9 9464.58,5689.33C9464.89,5688.9 9465.58,5687.59 9465.75,5684.78C9466.08,5679.38 9468.92,5650.69 9470.16,5643.03C9472.23,5642.06 9478.97,5639.1 9483.88,5639.2C9486.92,5639.26 9489.85,5640.16 9491.32,5643.28C9497.45,5656.34 9502.42,5671.24 9504.38,5676.1C9505.57,5679.04 9506.51,5681.04 9507.09,5681.75C9508.27,5683.18 9509.6,5683.47 9510.57,5683.48C9511.73,5683.5 9512.92,5683.14 9513.94,5681.97C9514.4,5681.45 9515.21,5680 9515.53,5677.13C9516,5672.95 9515.18,5625.99 9515.02,5616.64C9515.4,5616.35 9515.86,5616.1 9516.36,5615.85C9518.37,5614.88 9521.01,5614.31 9523.67,5614.22C9525.86,5614.14 9528.07,5614.37 9529.96,5615.03C9531.33,5615.52 9532.54,5616.19 9533.21,5617.31C9533.58,5617.93 9533.69,5619.19 9533.87,5620.86C9534.27,5624.45 9534.39,5629.5 9534.33,5635.29C9534.29,5639.82 9534.13,5644.79 9533.89,5649.88ZM9684.31,5694.74C9692.34,5684.45 9694.77,5666.48 9688.57,5654.2C9689.99,5641.03 9691.31,5629.5 9691.7,5627.92C9692.51,5624.7 9693.37,5621.37 9697.28,5617.93C9708.94,5607.7 9724.94,5611.08 9724.94,5611.08C9725.07,5611.11 9725.2,5611.13 9725.33,5611.14C9730.52,5611.73 9734.23,5612.78 9736.78,5614.22C9738.56,5615.21 9739.66,5616.34 9740.17,5617.6C9740.94,5619.51 9740.39,5621.54 9739.65,5623.24C9739.07,5624.6 9737.97,5626.06 9737.4,5626.78C9736.87,5626.59 9736,5626.27 9735.29,5625.99C9733.34,5625.23 9730.82,5624.34 9727.32,5623.84C9718.15,5622.52 9713.16,5625.24 9710.35,5628.47C9705.89,5633.57 9706.8,5640.87 9706.8,5640.87C9707.05,5642.77 9708.57,5644.25 9710.47,5644.47L9731.91,5646.85C9732.97,5651.52 9732.74,5654.39 9731.62,5656.15C9730.55,5657.84 9728.63,5657.8 9728.34,5657.78C9728.32,5657.78 9710.24,5655.78 9710.24,5655.78C9707.95,5655.52 9705.89,5657.17 9705.64,5659.46L9700.75,5703.49C9691.61,5704.18 9687.2,5702.6 9685.19,5700.17C9683.82,5698.52 9684.09,5696.69 9684.09,5696.69C9684.11,5696.56 9684.13,5696.43 9684.15,5696.31L9684.31,5694.74ZM9445.99,5703.02L9445.96,5702.97L9445.96,5702.97L9446.02,5703.08L9446.02,5703.08C9446.01,5703.06 9446,5703.04 9445.99,5703.02ZM9651.85,5648.47C9659.69,5648.47 9666.05,5651.05 9666.05,5654.22C9666.05,5657.4 9659.69,5659.97 9651.85,5659.97C9644.02,5659.97 9637.66,5657.4 9637.66,5654.22C9637.66,5651.05 9644.02,5648.47 9651.85,5648.47ZM9566.25,5648.47C9574.08,5648.47 9580.44,5650.72 9580.44,5653.5C9580.44,5656.28 9574.08,5658.53 9566.25,5658.53C9558.42,5658.53 9552.06,5656.28 9552.06,5653.5C9552.06,5650.72 9558.42,5648.47 9566.25,5648.47ZM9631.07,5641.16C9613.97,5638.53 9597.52,5639.86 9587.87,5641.16C9596.29,5643.74 9600.66,5647.8 9601.95,5652.98C9603.94,5651.31 9607.06,5649.48 9610.85,5649.84C9612.91,5650.03 9615.2,5650.86 9617.61,5652.76C9618.89,5647.72 9623.06,5643.74 9631.07,5641.16Z"/>
                </g>
            </g>
        </g>
        <g transform="matrix(1.59504,0,0,1.30688,0,0)">
            <g transform="matrix(0.46286,0,0,0.564406,5412.5,4012.55)">
                <g transform="matrix(1,0,0,1,-68.2997,-347.951)">
                    <path d="M1239.44,585.531L1222.57,606.143L1264.4,658.611L1368.96,652.09L1362.44,625.106L1268.45,647.368L1243.04,613.863L1273.24,600.919L1261.23,586.592L1239.44,585.531Z"/>
                </g>
                <g transform="matrix(1.35493,0,0,1.35493,-9941.16,-3142.96)">
                    <path d="M8229.43,2443.57C8233.42,2442.78 8253.5,2439.25 8273.23,2443.6C8273.71,2443.51 8274.2,2443.44 8274.7,2443.36C8293.96,2440.54 8302.17,2446.72 8302.17,2446.72C8317.96,2454.27 8314.31,2483.02 8301.15,2489.23C8288,2495.44 8271.65,2484.01 8263.58,2471.78C8259.54,2465.67 8257.12,2460.14 8257.34,2455.59C8255.59,2453.97 8253.96,2453.26 8252.48,2453.12C8249.61,2452.85 8247.41,2454.7 8246.38,2455.79C8246.57,2460.33 8244.16,2465.84 8240.14,2471.93C8232.06,2484.15 8215.71,2495.58 8202.56,2489.37C8189.4,2483.17 8185.75,2454.42 8201.55,2446.86C8201.55,2446.86 8209.75,2440.68 8229.01,2443.51C8229.15,2443.53 8229.29,2443.55 8229.43,2443.57ZM8282.91,2450.34C8288.69,2450.34 8293.38,2452.25 8293.38,2454.59C8293.38,2456.93 8288.69,2458.83 8282.91,2458.83C8277.13,2458.83 8272.43,2456.93 8272.43,2454.59C8272.43,2452.25 8277.13,2450.34 8282.91,2450.34ZM8219.73,2450.34C8225.51,2450.34 8230.2,2452.01 8230.2,2454.06C8230.2,2456.11 8225.51,2457.77 8219.73,2457.77C8213.95,2457.77 8209.25,2456.11 8209.25,2454.06C8209.25,2452.01 8213.95,2450.34 8219.73,2450.34ZM8267.57,2444.95C8254.95,2443.01 8242.81,2443.99 8235.68,2444.95C8241.9,2446.85 8245.12,2449.85 8246.08,2453.67C8247.55,2452.44 8249.84,2451.09 8252.64,2451.35C8254.17,2451.49 8255.85,2452.11 8257.64,2453.51C8258.58,2449.79 8261.66,2446.86 8267.57,2444.95Z"/>
                </g>
                <g transform="matrix(1,0,0,1,-310.303,0)">
                    <path d="M1676.56,283.143L1675.94,282.719L1699.95,269.342L1680.32,246.142L1711.65,226.648L1611.46,126.944L1562.42,156.474L1567.07,138.77L1532.72,159.527L1524.98,158.79L1530.74,149.668C1530.74,149.668 1537.46,136.081 1536.38,137.429C1531.92,142.957 1527.53,147.66 1527.53,147.66L1507.25,125.279L1500.79,76.7L1507.79,54.107L1584.21,103.364L1642.46,103.661L1698.02,31.097L1735.45,87.987L1742.25,141.36L1726.88,174.439L1763.34,219.221L1743.42,244.303L1765.34,264.485L1763.62,265.65L1617.7,444.22L1541.11,358.492L1541.11,314.925L1547.86,315.031L1554.08,351.254L1605.45,398.598L1676.56,283.143Z"/>
                </g>
            </g>
        </g>
    </g>
</svg>
