<?xml version="1.0" encoding="UTF-8" standalone="no"?>
<!DOCTYPE svg PUBLIC "-//W3C//DTD SVG 1.1//EN" "http://www.w3.org/Graphics/SVG/1.1/DTD/svg11.dtd">
<svg width="100%" height="100%" viewBox="0 0 369 266" version="1.1" xmlns="http://www.w3.org/2000/svg" xmlns:xlink="http://www.w3.org/1999/xlink" xml:space="preserve" xmlns:serif="http://www.serif.com/" style="fill-rule:evenodd;clip-rule:evenodd;stroke-linejoin:round;stroke-miterlimit:2;">
    <g transform="matrix(1,0,0,1,-2658.13,-5174.27)">
        <g transform="matrix(1.59504,0,0,1.30688,0,0)">
            <g transform="matrix(0.737847,0,0,0.764978,-2397.12,1236.3)">
                <g transform="matrix(0.849386,0,0,1,4251.1,2384.17)">
                    <path d="M1779.95,1361.99L1779.95,1428.21C1779.95,1428.21 1779.13,1445.5 1807.13,1437.44L1807.13,1406.36L1835.23,1406.36C1835.23,1406.36 1847.75,1402.65 1839.9,1384.73L1806.6,1384.73L1806.6,1368.18L1839.9,1368.18C1839.9,1368.18 1853.48,1365.04 1844.78,1347.02L1790.8,1347.02C1790.8,1347.02 1780.35,1347.34 1779.95,1361.99Z"/>
                </g>
                <g transform="matrix(0.849386,0,0,1,5305.84,3282.78)">
                    <path d="M261.315,456.27L261.315,526.733C261.315,526.733 259.788,538.532 281,541.184C302.212,543.835 328.726,542.775 337.211,524.347C345.696,505.919 331.61,492.939 323.158,490.673C320.358,489.922 322.552,489.824 323.803,489.769C325.054,489.713 339.761,485.335 336.897,467.729C334.034,450.123 311.761,445.563 297.125,445.563C282.489,445.563 262.837,446.827 261.315,456.27ZM287.319,502.322L287.319,520.055C287.319,520.055 310.821,524.976 312.009,511.825C313.197,498.673 288.761,502.322 287.319,502.322ZM287.283,466.36L287.283,483.224C287.283,483.224 309.513,486.554 310.035,475.463C310.556,464.372 291.986,465.699 287.283,466.36Z"/>
                </g>
                <g transform="matrix(1,0,0,1,1201.3,921.684)">
                    <g transform="matrix(0.849386,0,0,1,0,0)">
                        <path d="M5226.91,2807.2L5226.46,2806.79C5221.92,2802.19 5222.05,2796.28 5224.07,2791.27C5226,2786.47 5229.75,2782.8 5231.53,2781.99C5233.11,2781.28 5234.97,2781.62 5236.19,2782.85L5255.54,2802.19C5256.48,2803.13 5256.91,2804.46 5256.71,2805.77C5256.51,2807.09 5255.69,2808.22 5254.51,2808.84C5254.51,2808.84 5248.5,2811.97 5241.52,2812.28L5240.47,2812.28C5235.83,2812.32 5230.92,2811.04 5226.91,2807.2ZM5233.32,2791.76L5244.98,2803.42C5243.8,2803.69 5242.5,2803.89 5241.15,2803.95C5238.2,2804.08 5234.94,2803.52 5232.39,2800.94C5230.49,2799.01 5230.95,2796.48 5231.8,2794.38C5232.15,2793.5 5232.73,2792.57 5233.32,2791.76Z"/>
                    </g>
                    <g transform="matrix(0.849386,0,0,1,0,0)">
                        <path d="M5202.73,2815.87C5197.11,2806.07 5197.12,2794.27 5199.33,2787.01C5202.24,2777.43 5209.52,2771.65 5214.72,2768.61C5213.84,2767.32 5212.99,2765.71 5212.29,2763.75C5208.71,2753.77 5212.29,2733.48 5234.82,2728.49C5258.43,2723.27 5268.27,2736.9 5265.66,2747.87C5264.1,2754.41 5261.28,2756.59 5259.37,2757.44C5256.07,2758.92 5253.43,2757.4 5253.43,2757.4C5253.23,2757.3 5253.03,2757.18 5252.84,2757.04C5252.84,2757.04 5251.35,2756.1 5248.71,2755.99C5246.95,2755.91 5245.85,2755.93 5245.31,2756.59C5244.81,2757.2 5245.08,2758.06 5245.2,2758.75C5245.3,2759.35 5245.46,2759.89 5245.6,2760.28C5245.6,2760.28 5262.94,2777.35 5262.94,2777.35C5263.13,2773.17 5262.87,2769.04 5262.87,2769.04C5262.8,2767.55 5263.53,2766.14 5264.77,2765.34C5264.97,2765.21 5265.17,2765.1 5265.38,2765.01C5266.24,2764.46 5271.09,2761.66 5279.75,2762.38C5284.17,2762.75 5287.27,2764.43 5289.45,2766.81C5292.44,2770.08 5293.66,2774.94 5293.53,2780.33C5293.33,2788.5 5290.1,2797.91 5288.36,2802.42L5298.37,2812.43C5299.52,2813.59 5299.9,2815.31 5299.32,2816.85C5295.42,2827.15 5290.03,2831.1 5285.35,2832.46C5277.66,2834.7 5270.92,2829.91 5270.92,2829.91C5270.74,2829.77 5270.56,2829.62 5270.4,2829.46C5270.4,2829.46 5266.51,2825.57 5266.51,2825.57C5263.52,2827.65 5258.34,2830.23 5249.88,2831.69L5249.68,2831.72L5249.86,2832.29C5257.6,2856.36 5268.01,2896.93 5268.01,2896.93C5247.63,2910.18 5239.37,2895.87 5239.37,2895.87L5236.09,2881.23L5209.36,2881.55L5205.01,2900.22C5186.03,2907.22 5177.65,2900.06 5179.45,2887.97C5181.06,2877.19 5198.93,2826.79 5202.8,2815.98L5202.73,2815.87ZM5223.45,2831.6C5223.45,2831.6 5229.15,2854.66 5231.94,2860.23L5214.3,2860.23C5214.3,2860.23 5221.6,2839.28 5223.45,2831.6ZM5208.99,2809.98C5205.55,2802.81 5205.72,2794.61 5207.3,2789.44C5210.85,2777.78 5221.81,2773.98 5221.81,2773.98C5221.81,2773.98 5223.98,2773.37 5225.03,2771.6C5225.95,2770.03 5225.86,2767.68 5223.77,2766.14C5223.39,2765.86 5221.39,2764.46 5220.13,2760.94C5217.62,2753.94 5220.81,2740.13 5236.62,2736.63C5246.11,2734.53 5252.62,2736.04 5255.85,2739.59C5257.5,2741.39 5258.08,2743.7 5257.55,2745.94C5257.2,2747.42 5256.56,2748.71 5256.18,2749.38C5254.72,2748.66 5252.32,2747.79 5249.05,2747.66C5243.56,2747.44 5240.57,2749.24 5238.88,2751.29C5237.13,2753.41 5236.6,2756.13 5236.8,2758.68C5237.03,2761.72 5238.26,2764.37 5238.26,2764.37C5238.47,2764.83 5238.76,2765.25 5239.12,2765.6L5262.75,2788.86C5263.74,2789.83 5265.15,2790.25 5266.5,2789.97C5267.86,2789.7 5268.99,2788.77 5269.53,2787.49C5271.07,2783.76 5271.26,2775.74 5271.24,2771.46C5272.81,2770.89 5275.31,2770.37 5279.06,2770.69C5280.96,2770.85 5282.36,2771.41 5283.3,2772.43C5284.97,2774.27 5285.27,2777.1 5285.2,2780.12C5284.96,2789.91 5279.65,2801.72 5279.65,2801.72C5278.95,2803.29 5279.29,2805.14 5280.51,2806.36L5290.5,2816.35C5288.22,2821.33 5285.65,2823.69 5283.02,2824.46C5279.76,2825.41 5276.84,2823.81 5276.01,2823.29C5276.01,2823.28 5269.65,2816.93 5269.65,2816.93C5269.65,2816.93 5268.51,2815.56 5266.65,2815.52C5265.11,2815.49 5263.4,2817.32 5263.4,2817.32C5263.4,2817.32 5258.55,2821.93 5247.08,2823.69L5246.94,2823.71L5245.94,2823.89C5230.5,2825.96 5220.51,2822.91 5214.41,2817.35C5212.02,2815.18 5210.25,2812.65 5208.99,2809.98"/>
                    </g>
                </g>
                <g transform="matrix(0.849386,0,0,1,4966.3,3546.16)">
                    <path d="M847.394,195.873L847.725,264.315C847.725,264.315 843.417,283.124 874.737,275.832L874.737,247.826L881.532,247.826L896.281,270.529C896.281,270.529 909.786,291.931 927.104,267.381L906.721,241.363C906.721,241.363 924.453,231.42 923.127,212.86C921.801,194.299 906.731,179.904 880.869,181.207C856.094,182.456 847.172,185.7 847.394,195.873ZM874.177,204.465L874.177,225.995C874.177,225.995 894.01,229.283 895.07,215.813C896.142,202.196 877.04,203.934 874.177,204.465Z"/>
                </g>
                <g transform="matrix(0.844198,0.110358,-0.0937368,0.993892,4792.54,2091.82)">
                    <path d="M1310.93,1331.75C1308.59,1331.59 1289.84,1330.77 1277.49,1344.3C1272.45,1349.82 1271.58,1354.63 1270.94,1359.35C1270.41,1363.28 1270.88,1425.93 1270.9,1429.2C1270.86,1430.32 1270.91,1435.11 1274.9,1438.97C1278.46,1442.43 1285.89,1445.69 1301.64,1442.01C1303.53,1441.57 1304.86,1439.89 1304.86,1437.95L1304.86,1394.43C1304.86,1394.43 1318.94,1394.43 1318.94,1394.43C1318.96,1394.43 1318.99,1394.43 1319.01,1394.43C1319.01,1394.43 1326.3,1394.31 1329.49,1387.76C1331.16,1384.3 1331.86,1378.54 1327.97,1369.08C1327.32,1367.52 1325.8,1366.5 1324.11,1366.5L1303.58,1366.5C1303.71,1365.59 1304.01,1364.6 1304.63,1363.7C1305.98,1361.77 1308.78,1360.64 1313.88,1360.8C1319.19,1360.98 1322.04,1362.48 1324.09,1362.69C1326.14,1362.9 1327.83,1362.51 1329.5,1361.18C1330.51,1360.38 1332.77,1357.49 1334.08,1353.66C1335.38,1349.87 1335.76,1345.28 1333.75,1341.26C1331.36,1336.47 1325.22,1331.81 1310.93,1331.75ZM1324.5,1354.29C1323.94,1354.15 1323.04,1353.93 1322.31,1353.74C1320.28,1353.19 1317.69,1352.59 1314.15,1352.48C1304.88,1352.17 1300.23,1355.43 1297.79,1358.95C1293.92,1364.51 1295.63,1371.67 1295.63,1371.67C1296.09,1373.53 1297.76,1374.84 1299.68,1374.84L1321.24,1374.84C1322.81,1379.36 1322.9,1382.24 1321.99,1384.12C1321.12,1385.92 1319.2,1386.09 1318.9,1386.1C1318.88,1386.1 1300.7,1386.1 1300.7,1386.1C1298.39,1386.1 1296.53,1387.97 1296.53,1390.27L1296.53,1434.58C1287.53,1436.27 1282.97,1435.19 1280.69,1432.99C1279.16,1431.5 1279.22,1429.65 1279.22,1429.65C1279.23,1429.52 1279.24,1429.39 1279.24,1429.26C1279.24,1429.26 1278.66,1364.44 1279.2,1360.46C1279.64,1357.17 1280.13,1353.77 1283.64,1349.92C1294.1,1338.46 1310.38,1340.06 1310.38,1340.06C1310.51,1340.07 1310.64,1340.08 1310.77,1340.08C1315.99,1340.09 1319.79,1340.73 1322.49,1341.87C1324.36,1342.66 1325.58,1343.66 1326.23,1344.86C1327.2,1346.67 1326.88,1348.75 1326.34,1350.52C1325.91,1351.93 1324.98,1353.51 1324.5,1354.29Z"/>
                </g>
                <g transform="matrix(0.843317,-0.119323,0.101351,0.992855,4558.93,2359.09)">
                    <path d="M1053.11,1393.94C1051.53,1387.51 1049.52,1379.84 1047.13,1372.63C1044.99,1366.14 1039.88,1363.08 1033.95,1362.12C1028.95,1361.32 1023.35,1362.13 1019.19,1363.27C1016.01,1364.15 1013.62,1365.27 1012.67,1365.96C1011.53,1366.77 1011.06,1367.68 1010.84,1368.26C1009.99,1370.59 1007.51,1380.96 1005.2,1391.11C1003.2,1376.64 1000.35,1357.95 998.722,1352.13C997.265,1346.93 992.143,1343.44 985.709,1342.34C980.769,1341.5 975.144,1342.02 970.691,1343.74C967.235,1345.07 964.469,1347.14 962.869,1349.7C962.366,1350.5 962.151,1351.45 962.26,1352.39C962.26,1352.39 968.864,1408.89 979.236,1431.96C979.742,1433.51 983.675,1443.11 1003.46,1443.44C1011.71,1443.58 1017.99,1441.27 1021.2,1439.11C1023.63,1437.47 1024.71,1435.54 1024.97,1434.24L1024.92,1434.46C1024.92,1434.46 1026.79,1427.13 1028.68,1419.31C1030.29,1425.19 1032.16,1431.07 1033.89,1434.12C1039.39,1443.79 1051.3,1444.46 1058.73,1443.85C1062.9,1443.51 1067.75,1442.39 1071.57,1440.64C1074.66,1439.23 1077.09,1437.34 1078.43,1435.25C1078.87,1434.59 1079.7,1432.39 1080.59,1429C1083.48,1418.03 1088.71,1392.18 1091.15,1373.52C1092.09,1366.3 1092.61,1360.12 1092.46,1356.19C1092.37,1353.88 1092,1352.15 1091.54,1351.09C1089.2,1345.8 1082.55,1342.53 1075.5,1341.94C1068.54,1341.37 1061.59,1343.48 1058.74,1346.95C1058.21,1347.58 1057.89,1348.36 1057.81,1349.18C1057.81,1349.18 1055.12,1375.88 1053.11,1393.94ZM1071.33,1430.88C1070.67,1431.78 1069.46,1432.44 1068.09,1433.07C1065.11,1434.43 1061.31,1435.28 1058.05,1435.54C1055.33,1435.77 1051.75,1435.9 1048.36,1435.05C1045.53,1434.35 1042.81,1432.94 1041.14,1430C1037.12,1422.92 1033.2,1401.81 1032.5,1399.71C1031.23,1395.94 1027.63,1396.74 1027.05,1396.95C1026.63,1397.1 1024.18,1397.94 1024.27,1401.21C1024.35,1403.77 1018.01,1427.97 1016.99,1431.85C1016.64,1432.1 1015.73,1432.72 1014.86,1433.11C1012.24,1434.28 1008.35,1435.19 1003.6,1435.11C990.849,1434.89 987.068,1429.09 987.068,1429.09C987.068,1429.09 987.111,1429.21 987.111,1429.21L987.109,1429.21C987.062,1429.06 987.004,1428.91 986.937,1428.77C977.895,1408.93 971.908,1362.7 970.745,1353.17L970.745,1353.17C971.519,1352.48 972.555,1351.95 973.692,1351.51C976.838,1350.3 980.814,1349.96 984.303,1350.56C987.247,1351.06 990.031,1352 990.698,1354.38C993.297,1363.65 999.134,1406.87 999.134,1409.36C999.134,1410.86 999.281,1413.55 999.564,1414.99C999.737,1415.86 1000.01,1416.51 1000.23,1416.9C1001.07,1418.39 1002.27,1418.91 1003.22,1419.09C1004.42,1419.31 1005.85,1419.19 1007.18,1417.77C1007.54,1417.38 1008.38,1416.16 1008.88,1413.39C1009.85,1408.07 1016.1,1379.92 1018.25,1372.47C1020.42,1371.76 1027.46,1369.62 1032.33,1370.31C1035.33,1370.73 1038.14,1371.97 1039.22,1375.25C1043.76,1388.94 1046.91,1404.33 1048.28,1409.39C1049.11,1412.45 1049.8,1414.55 1050.3,1415.33C1051.29,1416.88 1052.58,1417.33 1053.54,1417.46C1054.69,1417.61 1055.91,1417.4 1057.07,1416.36C1057.58,1415.9 1058.56,1414.55 1059.22,1411.75C1060.18,1407.65 1064.98,1360.92 1065.93,1351.62C1066.35,1351.38 1066.83,1351.18 1067.36,1351C1069.47,1350.27 1072.16,1350.03 1074.81,1350.25C1076.99,1350.43 1079.16,1350.92 1080.96,1351.81C1082.26,1352.45 1083.39,1353.27 1083.91,1354.46C1084.2,1355.12 1084.16,1356.38 1084.15,1358.06C1084.12,1361.67 1083.63,1366.7 1082.88,1372.44C1080.79,1388.48 1076.59,1409.93 1073.68,1422.26C1072.71,1426.35 1071.5,1430.33 1071.33,1430.88Z"/>
                </g>
                <g transform="matrix(0.849386,0,0,1,745.199,-654.281)">
                    <path d="M5773.96,4250.8C5779.37,4249.73 5806.57,4244.94 5833.31,4250.84C5833.95,4250.72 5834.62,4250.62 5835.3,4250.52C5861.39,4246.69 5872.51,4255.06 5872.51,4255.06C5893.91,4265.3 5888.97,4304.26 5871.14,4312.67C5853.32,4321.08 5831.16,4305.59 5820.23,4289.02C5814.75,4280.74 5811.47,4273.26 5811.77,4267.08C5809.4,4264.89 5807.19,4263.93 5805.19,4263.74C5801.3,4263.38 5798.32,4265.88 5796.93,4267.35C5797.19,4273.51 5793.91,4280.97 5788.47,4289.22C5777.53,4305.78 5755.37,4321.27 5737.55,4312.86C5719.72,4304.45 5714.78,4265.49 5736.18,4255.26C5736.18,4255.26 5747.3,4246.89 5773.39,4250.71C5773.58,4250.74 5773.77,4250.77 5773.96,4250.8ZM5846.42,4259.98C5854.25,4259.98 5860.61,4262.55 5860.61,4265.73C5860.61,4268.9 5854.25,4271.48 5846.42,4271.48C5838.59,4271.48 5832.23,4268.9 5832.23,4265.73C5832.23,4262.55 5838.59,4259.98 5846.42,4259.98ZM5760.81,4259.98C5768.65,4259.98 5775.01,4262.23 5775.01,4265.01C5775.01,4267.78 5768.65,4270.04 5760.81,4270.04C5752.98,4270.04 5746.62,4267.78 5746.62,4265.01C5746.62,4262.23 5752.98,4259.98 5760.81,4259.98ZM5825.63,4252.67C5808.53,4250.04 5792.08,4251.37 5782.43,4252.67C5790.86,4255.24 5795.22,4259.3 5796.52,4264.48C5798.51,4262.82 5801.62,4260.99 5805.41,4261.34C5807.48,4261.54 5809.76,4262.36 5812.18,4264.26C5813.45,4259.23 5817.63,4255.25 5825.63,4252.67Z"/>
                </g>
            </g>
        </g>
    </g>
</svg>
