<?xml version="1.0" encoding="UTF-8" standalone="no"?>
<!DOCTYPE svg PUBLIC "-//W3C//DTD SVG 1.1//EN" "http://www.w3.org/Graphics/SVG/1.1/DTD/svg11.dtd">
<svg width="100%" height="100%" viewBox="0 0 369 602" version="1.1" xmlns="http://www.w3.org/2000/svg" xmlns:xlink="http://www.w3.org/1999/xlink" xml:space="preserve" xmlns:serif="http://www.serif.com/" style="fill-rule:evenodd;clip-rule:evenodd;stroke-linejoin:round;stroke-miterlimit:2;">
    <g transform="matrix(1,0,0,1,-8882.15,-5266.86)">
        <g transform="matrix(1.59504,0,0,1.30688,0,0)">
            <g transform="matrix(0.738112,0,0,0.765181,1503.52,1563.09)">
                <g transform="matrix(0.849386,0,0,1,4251.1,2384.17)">
                    <path d="M1779.95,1361.99L1779.95,1428.21C1779.95,1428.21 1779.13,1445.5 1807.13,1437.44L1807.13,1406.36L1835.23,1406.36C1835.23,1406.36 1847.75,1402.65 1839.9,1384.73L1806.6,1384.73L1806.6,1368.18L1839.9,1368.18C1839.9,1368.18 1853.48,1365.04 1844.78,1347.02L1790.8,1347.02C1790.8,1347.02 1780.35,1347.34 1779.95,1361.99Z" style="fill:rgb(191,81,17);"/>
                </g>
                <g transform="matrix(0.849386,0,0,1,5305.84,3282.78)">
                    <path d="M261.315,456.27L261.315,526.733C261.315,526.733 259.788,538.532 281,541.184C302.212,543.835 328.726,542.775 337.211,524.347C345.696,505.919 331.61,492.939 323.158,490.673C320.358,489.922 322.552,489.824 323.803,489.769C325.054,489.713 339.761,485.335 336.897,467.729C334.034,450.123 311.761,445.563 297.125,445.563C282.489,445.563 262.837,446.827 261.315,456.27ZM287.319,502.322L287.319,520.055C287.319,520.055 310.821,524.976 312.009,511.825C313.197,498.673 288.761,502.322 287.319,502.322ZM287.283,466.36L287.283,483.224C287.283,483.224 309.513,486.554 310.035,475.463C310.556,464.372 291.986,465.699 287.283,466.36Z" style="fill:rgb(191,81,17);"/>
                </g>
                <g transform="matrix(1,0,0,1,1201.3,921.684)">
                    <g transform="matrix(0.849386,0,0,1,0,0)">
                        <path d="M5226.91,2807.2L5226.46,2806.79C5221.92,2802.19 5222.05,2796.28 5224.07,2791.27C5226,2786.47 5229.75,2782.8 5231.53,2781.99C5233.11,2781.28 5234.97,2781.62 5236.19,2782.85L5255.54,2802.19C5256.48,2803.13 5256.91,2804.46 5256.71,2805.77C5256.51,2807.09 5255.69,2808.22 5254.51,2808.84C5254.51,2808.84 5248.5,2811.97 5241.52,2812.28L5240.47,2812.28C5235.83,2812.32 5230.92,2811.04 5226.91,2807.2ZM5233.32,2791.76L5244.98,2803.42C5243.8,2803.69 5242.5,2803.89 5241.15,2803.95C5238.2,2804.08 5234.94,2803.52 5232.39,2800.94C5230.49,2799.01 5230.95,2796.48 5231.8,2794.38C5232.15,2793.5 5232.73,2792.57 5233.32,2791.76Z" style="fill:rgb(191,81,17);"/>
                    </g>
                    <g transform="matrix(0.849386,0,0,1,0,0)">
                        <path d="M5202.73,2815.87C5197.11,2806.07 5197.12,2794.27 5199.33,2787.01C5202.24,2777.43 5209.52,2771.65 5214.72,2768.61C5213.84,2767.32 5212.99,2765.71 5212.29,2763.75C5208.71,2753.77 5212.29,2733.48 5234.82,2728.49C5258.43,2723.27 5268.27,2736.9 5265.66,2747.87C5264.1,2754.41 5261.28,2756.59 5259.37,2757.44C5256.07,2758.92 5253.43,2757.4 5253.43,2757.4C5253.23,2757.3 5253.03,2757.18 5252.84,2757.04C5252.84,2757.04 5251.35,2756.1 5248.71,2755.99C5246.95,2755.91 5245.85,2755.93 5245.31,2756.59C5244.81,2757.2 5245.08,2758.06 5245.2,2758.75C5245.3,2759.35 5245.46,2759.89 5245.6,2760.28C5245.6,2760.28 5262.94,2777.35 5262.94,2777.35C5263.13,2773.17 5262.87,2769.04 5262.87,2769.04C5262.8,2767.55 5263.53,2766.14 5264.77,2765.34C5264.97,2765.21 5265.17,2765.1 5265.38,2765.01C5266.24,2764.46 5271.09,2761.66 5279.75,2762.38C5284.17,2762.75 5287.27,2764.43 5289.45,2766.81C5292.44,2770.08 5293.66,2774.94 5293.53,2780.33C5293.33,2788.5 5290.1,2797.91 5288.36,2802.42L5298.37,2812.43C5299.52,2813.59 5299.9,2815.31 5299.32,2816.85C5295.42,2827.15 5290.03,2831.1 5285.35,2832.46C5277.66,2834.7 5270.92,2829.91 5270.92,2829.91C5270.74,2829.77 5270.56,2829.62 5270.4,2829.46C5270.4,2829.46 5266.51,2825.57 5266.51,2825.57C5263.52,2827.65 5258.34,2830.23 5249.88,2831.69L5249.68,2831.72L5249.86,2832.29C5257.6,2856.36 5268.01,2896.93 5268.01,2896.93C5247.63,2910.18 5239.37,2895.87 5239.37,2895.87L5236.09,2881.23L5209.36,2881.55L5205.01,2900.22C5186.03,2907.22 5177.65,2900.06 5179.45,2887.97C5181.06,2877.19 5198.93,2826.79 5202.8,2815.98L5202.73,2815.87ZM5223.45,2831.6C5223.45,2831.6 5229.15,2854.66 5231.94,2860.23L5214.3,2860.23C5214.3,2860.23 5221.6,2839.28 5223.45,2831.6ZM5208.99,2809.98C5205.55,2802.81 5205.72,2794.61 5207.3,2789.44C5210.85,2777.78 5221.81,2773.98 5221.81,2773.98C5221.81,2773.98 5223.98,2773.37 5225.03,2771.6C5225.95,2770.03 5225.86,2767.68 5223.77,2766.14C5223.39,2765.86 5221.39,2764.46 5220.13,2760.94C5217.62,2753.94 5220.81,2740.13 5236.62,2736.63C5246.11,2734.53 5252.62,2736.04 5255.85,2739.59C5257.5,2741.39 5258.08,2743.7 5257.55,2745.94C5257.2,2747.42 5256.56,2748.71 5256.18,2749.38C5254.72,2748.66 5252.32,2747.79 5249.05,2747.66C5243.56,2747.44 5240.57,2749.24 5238.88,2751.29C5237.13,2753.41 5236.6,2756.13 5236.8,2758.68C5237.03,2761.72 5238.26,2764.37 5238.26,2764.37C5238.47,2764.83 5238.76,2765.25 5239.12,2765.6L5262.75,2788.86C5263.74,2789.83 5265.15,2790.25 5266.5,2789.97C5267.86,2789.7 5268.99,2788.77 5269.53,2787.49C5271.07,2783.76 5271.26,2775.74 5271.24,2771.46C5272.81,2770.89 5275.31,2770.37 5279.06,2770.69C5280.96,2770.85 5282.36,2771.41 5283.3,2772.43C5284.97,2774.27 5285.27,2777.1 5285.2,2780.12C5284.96,2789.91 5279.65,2801.72 5279.65,2801.72C5278.95,2803.29 5279.29,2805.14 5280.51,2806.36L5290.5,2816.35C5288.22,2821.33 5285.65,2823.69 5283.02,2824.46C5279.76,2825.41 5276.84,2823.81 5276.01,2823.29C5276.01,2823.28 5269.65,2816.93 5269.65,2816.93C5269.65,2816.93 5268.51,2815.56 5266.65,2815.52C5265.11,2815.49 5263.4,2817.32 5263.4,2817.32C5263.4,2817.32 5258.55,2821.93 5247.08,2823.69L5246.94,2823.71L5245.94,2823.89C5230.5,2825.96 5220.51,2822.91 5214.41,2817.35C5212.02,2815.18 5210.25,2812.65 5208.99,2809.98" style="fill:rgb(191,81,17);"/>
                    </g>
                </g>
                <g transform="matrix(0.849386,0,0,1,4966.3,3546.16)">
                    <path d="M847.394,195.873L847.725,264.315C847.725,264.315 843.417,283.124 874.737,275.832L874.737,247.826L881.532,247.826L896.281,270.529C896.281,270.529 909.786,291.931 927.104,267.381L906.721,241.363C906.721,241.363 924.453,231.42 923.127,212.86C921.801,194.299 906.731,179.904 880.869,181.207C856.094,182.456 847.172,185.7 847.394,195.873ZM874.177,204.465L874.177,225.995C874.177,225.995 894.01,229.283 895.07,215.813C896.142,202.196 877.04,203.934 874.177,204.465Z" style="fill:rgb(191,81,17);"/>
                </g>
                <g transform="matrix(0.849386,0,0,1,-2036.98,-2042.77)">
                    <path d="M9151.28,5645.46C9152.42,5635.27 9153.38,5627.21 9153.7,5625.9C9154.86,5621.28 9156.26,5616.6 9161.87,5611.67C9175.64,5599.59 9194.19,5602.46 9196.49,5602.88C9210.69,5604.52 9216.27,5609.83 9218.12,5614.85C9219.68,5619.07 9218.8,5623.6 9217.08,5627.22C9215.36,5630.87 9212.79,5633.5 9211.71,5634.18C9209.89,5635.32 9208.17,5635.53 9206.16,5635.09C9204.14,5634.65 9201.48,5632.85 9196.22,5632.09C9191.17,5631.36 9188.26,5632.17 9186.71,5633.95C9185.99,5634.77 9185.58,5635.72 9185.35,5636.61L9205.76,5638.88C9207.44,5639.07 9208.84,5640.25 9209.31,5641.87C9212.13,5651.7 9210.81,5657.35 9208.76,5660.6C9204.87,5666.76 9197.61,5666.08 9197.61,5666.08C9197.58,5666.08 9197.56,5666.07 9197.54,5666.07C9197.54,5666.07 9183.55,5664.52 9183.55,5664.52C9183.55,5664.52 9178.74,5707.77 9178.74,5707.77C9178.53,5709.69 9177.02,5711.22 9175.1,5711.45C9159.04,5713.36 9152.01,5709.3 9148.85,5705.48C9147.68,5704.07 9146.95,5702.6 9146.5,5701.23C9128.7,5709.48 9106.65,5694.03 9095.75,5677.52C9090.27,5669.23 9087,5661.75 9087.29,5655.57C9084.92,5653.39 9082.71,5652.42 9080.71,5652.23C9076.83,5651.87 9073.84,5654.38 9072.45,5655.85C9072.71,5662.01 9069.44,5669.46 9063.99,5677.71C9053.05,5694.27 9030.9,5709.76 9013.07,5701.35C9011.13,5700.44 9009.34,5699.16 9007.72,5697.59C9007.64,5697.84 9007.56,5698.04 9007.5,5698.18C9006.41,5700.41 9004.22,5702.58 9001.32,5704.35C8997.74,5706.54 8993.06,5708.23 8988.96,5709.07C8981.65,5710.56 8969.75,5711.32 8963.14,5702.37C8961.05,5699.55 8958.49,5693.93 8956.19,5688.28C8955.25,5696.28 8954.27,5703.78 8954.27,5703.78L8954.29,5703.55L8954.27,5703.76C8954.1,5705.09 8953.24,5707.02 8951.13,5708.84C8948.2,5711.37 8942.24,5714.41 8934.03,5715.26C8914.35,5717.28 8909.3,5708.23 8908.61,5706.75C8895.56,5685.08 8882.26,5629.77 8882.26,5629.77C8882.04,5628.85 8882.14,5627.88 8882.55,5627.03C8883.83,5624.3 8886.33,5621.91 8889.6,5620.17C8893.82,5617.94 8899.34,5616.75 8904.35,5617C8910.86,5617.32 8916.37,5620.18 8918.43,5625.16C8920.75,5630.75 8925.8,5648.96 8929.52,5663.1C8930.6,5652.74 8931.82,5642.15 8932.39,5639.73C8932.53,5639.13 8932.9,5638.17 8933.93,5637.23C8934.8,5636.43 8937.04,5635.03 8940.09,5633.78C8944.08,5632.15 8949.54,5630.68 8954.6,5630.88C8960.6,5631.12 8966.04,5633.55 8968.95,5639.74C8972.18,5646.61 8975.09,5653.99 8977.42,5660.19C8977.27,5642.02 8976.74,5615.18 8976.74,5615.18C8976.73,5614.36 8976.96,5613.55 8977.4,5612.86C8979.82,5609.08 8986.47,5606.15 8993.45,5605.89C9000.52,5605.63 9007.51,5608.08 9010.46,5613.06C9011.05,5614.05 9011.62,5615.72 9011.98,5618.01C9012.6,5621.9 9012.83,5628.09 9012.75,5635.38C9012.73,5637.86 9012.67,5640.48 9012.58,5643.19C9015.67,5641.37 9027.02,5635.99 9048.91,5639.21C9049.1,5639.23 9049.3,5639.26 9049.48,5639.29C9054.89,5638.22 9082.09,5633.44 9108.83,5639.33C9109.48,5639.22 9110.14,5639.11 9110.82,5639.01C9136.91,5635.19 9148.03,5643.56 9148.03,5643.56C9149.19,5644.11 9150.27,5644.75 9151.28,5645.46ZM9003.98,5649.88C8996.14,5659.59 8995.94,5675.6 9001.02,5687.5C9000.57,5691.05 9000.01,5694.2 8999.92,5694.69C8999.37,5695.66 8998.25,5696.46 8996.97,5697.25C8994.17,5698.96 8990.49,5700.25 8987.29,5700.9C8984.62,5701.45 8981.08,5702 8977.61,5701.57C8974.72,5701.21 8971.85,5700.13 8969.84,5697.42C8965,5690.87 8958.59,5670.37 8957.65,5668.38C8955.94,5664.78 8952.46,5666 8951.91,5666.28C8951.51,5666.48 8949.17,5667.61 8949.66,5670.85C8950.04,5673.38 8946.63,5698.16 8946.08,5702.13C8945.77,5702.42 8944.93,5703.15 8944.12,5703.64C8941.65,5705.12 8937.9,5706.48 8933.18,5706.97C8920.6,5708.26 8916.12,5703.05 8916.05,5702.97C8916,5702.86 8915.94,5702.76 8915.88,5702.66C8904.53,5684.04 8893.07,5638.86 8890.78,5629.53L8890.78,5629.53C8891.47,5628.76 8892.43,5628.11 8893.51,5627.53C8896.49,5625.95 8900.4,5625.15 8903.93,5625.32C8906.91,5625.47 8909.79,5626.07 8910.74,5628.36C8914.42,5637.25 8925.38,5679.46 8925.67,5681.94C8925.85,5683.43 8926.32,5686.08 8926.77,5687.47C8927.05,5688.31 8927.39,5688.93 8927.66,5689.3C8928.67,5690.67 8929.93,5691.04 8930.89,5691.1C8932.11,5691.19 8933.52,5690.9 8934.66,5689.33C8934.98,5688.9 8935.67,5687.59 8935.84,5684.78C8936.16,5679.38 8939,5650.69 8940.25,5643.03C8942.32,5642.06 8949.06,5639.1 8953.97,5639.2C8957,5639.26 8959.94,5640.16 8961.4,5643.28C8967.54,5656.34 8972.51,5671.24 8974.47,5676.1C8975.66,5679.04 8976.59,5681.04 8977.18,5681.75C8978.35,5683.18 8979.68,5683.47 8980.66,5683.48C8981.82,5683.5 8983,5683.14 8984.03,5681.97C8984.48,5681.45 8985.29,5680 8985.61,5677.13C8986.08,5672.95 8985.27,5625.99 8985.1,5616.64C8985.48,5616.35 8985.95,5616.1 8986.45,5615.85C8988.46,5614.88 8991.1,5614.31 8993.76,5614.22C8995.94,5614.14 8998.16,5614.37 9000.05,5615.03C9001.42,5615.52 9002.63,5616.19 9003.29,5617.31C9003.66,5617.93 9003.77,5619.19 9003.96,5620.86C9004.36,5624.45 9004.48,5629.5 9004.42,5635.29C9004.37,5639.82 9004.21,5644.79 9003.98,5649.88ZM9154.39,5694.74C9162.42,5684.45 9164.85,5666.48 9158.65,5654.2C9160.08,5641.03 9161.39,5629.5 9161.79,5627.92C9162.59,5624.7 9163.45,5621.37 9167.37,5617.93C9179.03,5607.7 9195.03,5611.08 9195.03,5611.08C9195.16,5611.11 9195.28,5611.13 9195.41,5611.14C9200.6,5611.73 9204.31,5612.78 9206.87,5614.22C9208.64,5615.21 9209.74,5616.34 9210.25,5617.6C9211.02,5619.51 9210.47,5621.54 9209.74,5623.24C9209.15,5624.6 9208.06,5626.06 9207.49,5626.78C9206.95,5626.59 9206.08,5626.27 9205.37,5625.99C9203.42,5625.23 9200.91,5624.34 9197.41,5623.84C9188.23,5622.52 9183.25,5625.24 9180.43,5628.47C9175.98,5633.57 9176.89,5640.87 9176.89,5640.87C9177.14,5642.77 9178.65,5644.25 9180.56,5644.47L9201.99,5646.85C9203.05,5651.52 9202.82,5654.39 9201.71,5656.15C9200.64,5657.84 9198.72,5657.8 9198.42,5657.78C9198.4,5657.78 9180.32,5655.78 9180.32,5655.78C9178.04,5655.52 9175.98,5657.17 9175.72,5659.46L9170.83,5703.49C9161.7,5704.18 9157.29,5702.6 9155.27,5700.17C9153.91,5698.52 9154.18,5696.69 9154.18,5696.69C9154.2,5696.56 9154.22,5696.43 9154.23,5696.31L9154.39,5694.74ZM8916.07,5703.02L8916.05,5702.97L8916.05,5702.97L8916.1,5703.08L8916.1,5703.08C8916.09,5703.06 8916.08,5703.04 8916.07,5703.02ZM9121.94,5648.47C9129.77,5648.47 9136.14,5651.05 9136.14,5654.22C9136.14,5657.4 9129.77,5659.97 9121.94,5659.97C9114.11,5659.97 9107.75,5657.4 9107.75,5654.22C9107.75,5651.05 9114.11,5648.47 9121.94,5648.47ZM9036.34,5648.47C9044.17,5648.47 9050.53,5650.72 9050.53,5653.5C9050.53,5656.28 9044.17,5658.53 9036.34,5658.53C9028.5,5658.53 9022.14,5656.28 9022.14,5653.5C9022.14,5650.72 9028.5,5648.47 9036.34,5648.47ZM9101.15,5641.16C9084.06,5638.53 9067.6,5639.86 9057.95,5641.16C9066.38,5643.74 9070.74,5647.8 9072.04,5652.98C9074.03,5651.31 9077.14,5649.48 9080.93,5649.84C9083,5650.03 9085.28,5650.86 9087.7,5652.76C9088.97,5647.72 9093.15,5643.74 9101.15,5641.16Z" style="fill:rgb(191,81,17);"/>
                </g>
            </g>
        </g>
        <g transform="matrix(1.59504,0,0,1.30688,0,0)">
            <g transform="matrix(0.46286,0,0,0.564406,5080.28,4012.55)">
                <g transform="matrix(1,0,0,1,-68.2997,-347.951)">
                    <path d="M1239.44,585.531L1222.57,606.143L1264.4,658.611L1368.96,652.09L1362.44,625.106L1268.45,647.368L1243.04,613.863L1273.24,600.919L1261.23,586.592L1239.44,585.531Z" style="fill:rgb(191,81,17);"/>
                </g>
                <g transform="matrix(1.3545,0,0,1.35573,-10975.8,-7109.32)">
                    <path d="M8995.98,5367.78C8999.97,5366.99 9020.05,5363.46 9039.79,5367.81C9040.27,5367.73 9040.76,5367.65 9041.26,5367.57C9060.52,5364.75 9068.74,5370.93 9068.74,5370.93C9084.53,5378.48 9080.88,5407.21 9067.72,5413.41C9054.56,5419.62 9038.21,5408.19 9030.13,5395.97C9026.09,5389.86 9023.67,5384.34 9023.89,5379.79C9022.14,5378.17 9020.51,5377.46 9019.03,5377.33C9016.16,5377.06 9013.96,5378.91 9012.93,5379.99C9013.12,5384.53 9010.71,5390.03 9006.68,5396.12C8998.61,5408.33 8982.25,5419.76 8969.09,5413.56C8955.93,5407.35 8952.28,5378.62 8968.08,5371.07C8968.08,5371.07 8976.29,5364.89 8995.56,5367.72C8995.7,5367.74 8995.84,5367.76 8995.98,5367.78ZM9049.47,5374.55C9055.25,5374.55 9059.95,5376.45 9059.95,5378.79C9059.95,5381.13 9055.25,5383.03 9049.47,5383.03C9043.69,5383.03 9038.99,5381.13 9038.99,5378.79C9038.99,5376.45 9043.69,5374.55 9049.47,5374.55ZM8986.27,5374.55C8992.05,5374.55 8996.75,5376.21 8996.75,5378.26C8996.75,5380.31 8992.05,5381.97 8986.27,5381.97C8980.49,5381.97 8975.79,5380.31 8975.79,5378.26C8975.79,5376.21 8980.49,5374.55 8986.27,5374.55ZM9034.12,5369.16C9021.5,5367.22 9009.35,5368.2 9002.23,5369.16C9008.45,5371.06 9011.67,5374.05 9012.63,5377.87C9014.1,5376.65 9016.4,5375.3 9019.2,5375.56C9020.72,5375.7 9022.41,5376.31 9024.19,5377.71C9025.13,5374 9028.21,5371.06 9034.12,5369.16Z" style="fill:rgb(191,81,17);"/>
                </g>
                <g transform="matrix(1,0,0,1,-310.303,0)">
                    <path d="M1676.56,283.143L1675.94,282.719L1699.95,269.342L1680.32,246.142L1711.65,226.648L1611.46,126.944L1562.42,156.474L1567.07,138.77L1532.72,159.527L1524.98,158.79L1530.74,149.668C1530.74,149.668 1537.46,136.081 1536.38,137.429C1531.92,142.957 1527.53,147.66 1527.53,147.66L1507.25,125.279L1500.79,76.7L1507.79,54.107L1584.21,103.364L1642.46,103.661L1698.02,31.097L1735.45,87.987L1742.25,141.36L1726.88,174.439L1763.34,219.221L1743.42,244.303L1765.34,264.485L1763.62,265.65L1617.7,444.22L1541.11,358.492L1541.11,314.925L1547.86,315.031L1554.08,351.254L1605.45,398.598L1676.56,283.143Z" style="fill:rgb(191,81,17);"/>
                </g>
            </g>
        </g>
    </g>
</svg>
