<?xml version="1.0" encoding="UTF-8" standalone="no"?>
<!DOCTYPE svg PUBLIC "-//W3C//DTD SVG 1.1//EN" "http://www.w3.org/Graphics/SVG/1.1/DTD/svg11.dtd">
<svg width="100%" height="100%" viewBox="0 0 814 150" version="1.1" xmlns="http://www.w3.org/2000/svg" xmlns:xlink="http://www.w3.org/1999/xlink" xml:space="preserve" xmlns:serif="http://www.serif.com/" style="fill-rule:evenodd;clip-rule:evenodd;stroke-linejoin:round;stroke-miterlimit:2;">
    <g transform="matrix(1,0,0,1,-4664.22,-4941.28)">
        <g transform="matrix(1.59504,0,0,1.30688,0,0)">
            <g transform="matrix(0.738112,0,0,0.765181,-874.946,1053.18)">
                <g transform="matrix(0.849386,0,0,1,4268.41,2229.94)">
                    <path d="M1779.95,1361.99L1779.95,1428.21C1779.95,1428.21 1779.13,1445.5 1807.13,1437.44L1807.13,1406.36L1835.23,1406.36C1835.23,1406.36 1847.75,1402.65 1839.9,1384.73L1806.6,1384.73L1806.6,1368.18L1839.9,1368.18C1839.9,1368.18 1853.48,1365.04 1844.78,1347.02L1790.8,1347.02C1790.8,1347.02 1780.35,1347.34 1779.95,1361.99Z" style="fill:rgb(191,81,17);"/>
                </g>
                <g transform="matrix(0.849386,0,0,1,5322.29,3128.55)">
                    <path d="M261.315,456.27L261.315,526.733C261.315,526.733 259.788,538.532 281,541.184C302.212,543.835 328.726,542.775 337.211,524.347C345.696,505.919 331.61,492.939 323.158,490.673C320.358,489.922 322.552,489.824 323.803,489.769C325.054,489.713 339.761,485.335 336.897,467.729C334.034,450.123 311.761,445.563 297.125,445.563C282.489,445.563 262.837,446.827 261.315,456.27ZM287.319,502.322L287.319,520.055C287.319,520.055 310.821,524.976 312.009,511.825C313.197,498.673 288.761,502.322 287.319,502.322ZM287.283,466.36L287.283,483.224C287.283,483.224 309.513,486.554 310.035,475.463C310.556,464.372 291.986,465.699 287.283,466.36Z" style="fill:rgb(191,81,17);"/>
                </g>
                <g transform="matrix(0.849386,0,0,1,4982.75,3391.92)">
                    <path d="M771.92,189.464C771.92,189.464 749.648,251.403 747.845,263.494C746.042,275.585 754.42,282.744 773.405,275.744L777.753,257.077L804.48,256.759L807.768,271.395C807.768,271.395 816.024,285.713 836.404,272.456C836.404,272.456 818.073,201.025 812.027,191.48C805.982,181.934 793.785,182.783 790.285,182.358C786.785,181.934 774.449,185.222 771.92,189.464ZM791.845,207.124C791.845,207.124 797.546,230.192 800.33,235.76L782.698,235.76C782.698,235.76 789.989,214.813 791.845,207.124Z" style="fill:rgb(191,81,17);"/>
                </g>
                <g transform="matrix(0.849386,0,0,1,5000.78,3430.88)">
                    <path d="M589.151,215.418C588.942,215.506 588.341,215.958 588.147,216.084C586.898,216.89 586.173,218.141 586.245,219.626C586.245,219.626 586.48,223.922 586.284,228.097C586.284,228.097 568.917,210.949 568.917,210.949C568.619,210.399 568.408,209.23 568.371,208.614C568.313,207.641 568.441,207.441 568.698,207.185C569.299,206.583 571.399,206.501 572.461,206.641C574.359,206.893 574.672,206.999 576.006,207.575C576.314,207.708 576.591,207.96 576.796,208.065C576.796,208.065 579.333,209.533 582.638,208.055C584.553,207.199 587.281,204.917 588.954,198.405C591.664,187.853 581.981,174.055 558.227,179.203C535.598,184.107 532.011,204.452 535.585,214.361C536.292,216.322 537.115,217.926 537.993,219.224C532.786,222.263 525.696,227.857 522.779,237.44C519.951,246.734 520.607,263.415 532.245,274.157C539.739,281.073 552.293,285.458 570.508,282.797C580.639,281.318 586.503,278.442 589.815,276.143C589.815,276.143 593.409,279.782 593.409,279.782C593.57,279.943 594.189,280.554 594.374,280.687C594.374,280.687 601.04,285.37 608.731,283.131C613.412,281.769 618.047,278.316 622.288,268.147C623.089,266.226 623.032,264.46 621.874,263.302L611.645,253.039C613.243,248.777 616.426,239.414 616.797,230.943C617.033,225.563 615.492,220.432 613.007,217.745C610.818,215.378 607.518,213.446 603.097,213.077C594.433,212.355 590.007,214.868 589.151,215.418ZM579.526,200.036C578.071,199.321 575.766,198.471 572.498,198.318C567.649,198.09 564.571,199.31 562.328,201.722C560.457,203.733 559.897,206.532 560.091,209.082C560.323,212.119 561.501,214.831 561.501,214.831C561.711,215.288 562.188,216.021 562.547,216.374L586.126,239.635C587.113,240.607 588.599,240.865 589.957,240.59C591.315,240.314 592.447,239.196 592.977,237.916C594.52,234.195 594.525,226.301 594.508,222.022C596.075,221.457 598.495,221.043 602.246,221.355C604.147,221.514 605.761,222.185 606.697,223.208C608.374,225.043 608.569,227.827 608.466,230.847C608.13,240.681 603.034,252.203 603.069,252.146C603.436,251.552 601.364,254.58 603.775,256.93C603.966,257.117 613.808,266.966 613.808,266.966C611.528,271.941 609.133,274.372 606.504,275.137C603.239,276.087 600.42,274.644 599.42,273.903C598.058,272.895 592.853,267.604 592.853,267.604C592.853,267.604 591.305,265.983 589.158,266.497C587.667,266.854 585.949,268.663 585.949,268.663C585.949,268.663 581.707,272.826 569.43,274.475C553.98,276.551 544.255,274.136 537.641,268.142C528.903,260.223 528.477,246.93 530.752,239.867C534.146,229.326 544.867,225.011 544.867,225.011L546.726,224.224C548.033,224.066 551.432,219.725 547.358,216.983C546.966,216.72 544.77,215.273 543.49,211.762C540.892,204.632 544.042,190.674 559.945,187.289C569.451,185.266 575.903,186.749 579.139,190.298C580.781,192.099 581.429,194.283 580.896,196.519C580.543,198.003 579.902,199.365 579.526,200.036ZM559.683,233.71C558.458,232.484 556.602,231.948 554.549,232.859C552.768,233.649 549.453,236.899 547.519,241.697C545.501,246.706 545.407,252.932 549.953,257.537C554.357,261.999 559.939,263.287 565.048,263.062C572.027,262.754 577.965,259.265 577.965,259.265C579.143,258.652 579.683,257.83 579.885,256.518C580.087,255.206 579.613,253.639 578.674,252.7L559.683,233.71ZM556.572,242.226L568.238,254.168C567.054,254.434 565.517,254.638 564.167,254.697C561.215,254.828 557.996,254.065 555.451,251.486C553.546,249.556 554.403,246.911 555.249,244.812C555.603,243.932 555.99,243.038 556.572,242.226Z" style="fill:rgb(191,81,17);"/>
                </g>
                <g transform="matrix(0.849386,0,0,1,4982.75,3391.92)">
                    <path d="M847.394,195.873L847.725,264.315C847.725,264.315 843.417,283.124 874.737,275.832L874.737,247.826L881.532,247.826L896.281,270.529C896.281,270.529 909.786,291.931 927.104,267.381L906.721,241.363C906.721,241.363 924.453,231.42 923.127,212.86C921.801,194.299 906.731,179.904 880.869,181.207C856.094,182.456 847.172,185.7 847.394,195.873ZM874.177,204.465L874.177,225.995C874.177,225.995 894.01,229.283 895.07,215.813C896.142,202.196 877.04,203.934 874.177,204.465Z" style="fill:rgb(191,81,17);"/>
                </g>
                <g transform="matrix(0.849386,0,0,1,1185.38,-1376.38)">
                    <path d="M4995.87,4941.91C5010.73,4943.62 5016.59,4949.15 5018.52,4954.4C5020.14,4958.79 5019.22,4963.51 5017.43,4967.28C5015.64,4971.08 5012.97,4973.82 5011.84,4974.53C5009.99,4975.7 5008.22,4975.91 5006.15,4975.46C5004.03,4975 5001.21,4973.09 4995.65,4972.29C4990.2,4971.5 4987.07,4972.42 4985.4,4974.33C4984.54,4975.31 4984.09,4976.46 4983.86,4977.5L5005.66,4979.92C5007.34,4980.11 5008.74,4981.29 5009.21,4982.91C5012.16,4993.19 5010.8,4999.1 5008.65,5002.5C5004.63,5008.88 4997.1,5008.18 4997.1,5008.18C4997.08,5008.18 4997.05,5008.17 4997.03,5008.17C4997.03,5008.17 4982.03,5006.51 4982.03,5006.51L4976.93,5052.41C4976.72,5054.33 4975.2,5055.85 4973.28,5056.08C4956.46,5058.09 4949.09,5053.87 4945.78,5049.86C4944.56,5048.39 4943.8,5046.86 4943.33,5045.43L4943.29,5045.45C4924.47,5054.33 4901.07,5037.98 4889.52,5020.49C4883.75,5011.74 4880.28,5003.84 4880.6,4997.32C4878.1,4995.01 4875.76,4993.99 4873.65,4993.79C4869.55,4993.41 4866.39,4996.05 4864.92,4997.61C4865.2,5004.11 4861.74,5011.98 4855.99,5020.69C4844.44,5038.18 4821.05,5054.54 4802.23,5045.66C4800.1,5044.65 4798.15,5043.24 4796.39,5041.5C4796.3,5041.81 4796.21,5042.04 4796.13,5042.2C4795,5044.52 4792.72,5046.78 4789.7,5048.62C4785.94,5050.93 4781.02,5052.69 4776.72,5053.57C4769.07,5055.14 4756.61,5055.96 4749.69,5046.59C4747.4,5043.49 4744.55,5037.16 4742.05,5030.94C4741.02,5039.7 4739.91,5048.19 4739.91,5048.19L4739.91,5048.17C4739.73,5049.53 4738.84,5051.51 4736.67,5053.38C4733.6,5056.03 4727.36,5059.22 4718.75,5060.11C4698.14,5062.23 4692.85,5052.78 4692.14,5051.25C4678.37,5028.4 4664.33,4970.02 4664.33,4970.02C4664.11,4969.1 4664.21,4968.13 4664.62,4967.27C4665.95,4964.44 4668.56,4961.95 4671.97,4960.15C4676.38,4957.8 4682.17,4956.56 4687.41,4956.82C4694.2,4957.16 4699.94,4960.11 4702.09,4965.3C4704.6,4971.36 4710.16,4991.48 4714.1,5006.55C4715.28,4995.24 4716.64,4983.3 4717.27,4980.65C4717.41,4980.04 4717.78,4979.07 4718.82,4978.12C4719.73,4977.28 4722.07,4975.83 4725.25,4974.53C4729.44,4972.81 4735.17,4971.27 4740.48,4971.48C4746.73,4971.73 4752.4,4974.25 4755.43,4980.7C4759.05,4988.41 4762.29,4996.72 4764.83,5003.49C4764.68,4984.31 4764.1,4954.66 4764.1,4954.66C4764.09,4953.84 4764.32,4953.03 4764.76,4952.34C4767.28,4948.39 4774.23,4945.36 4781.52,4945.09C4788.89,4944.82 4796.19,4947.35 4799.27,4952.55C4799.88,4953.57 4800.47,4955.32 4800.85,4957.69C4801.5,4961.79 4801.74,4968.32 4801.66,4975.99C4801.63,4978.66 4801.57,4981.48 4801.47,4984.38C4804.36,4982.62 4816.36,4976.56 4840.07,4980.04C4840.27,4980.07 4840.48,4980.1 4840.68,4980.13C4846.39,4979 4875.1,4973.94 4903.34,4980.17C4904.02,4980.05 4904.72,4979.94 4905.44,4979.83C4932.99,4975.79 4944.73,4984.63 4944.73,4984.63C4946.04,4985.26 4947.25,4985.98 4948.38,4986.8C4949.58,4975.98 4950.6,4967.43 4950.95,4966.04C4952.16,4961.2 4953.62,4956.3 4959.5,4951.14C4973.99,4938.42 4993.52,4941.48 4995.87,4941.91ZM4699.58,5047.48C4699.53,5047.37 4699.47,5047.26 4699.4,5047.15C4687.37,5027.4 4675.2,4979.36 4672.85,4969.76L4672.85,4969.76C4673.6,4968.88 4674.67,4968.15 4675.87,4967.51C4679.05,4965.82 4683.22,4964.95 4687,4965.14C4690.25,4965.31 4693.36,4966 4694.39,4968.49C4698.28,4977.9 4709.86,5022.51 4710.18,5025.13C4710.36,5026.69 4710.85,5029.47 4711.32,5030.93C4711.61,5031.78 4711.96,5032.42 4712.23,5032.79C4713.24,5034.17 4714.51,5034.54 4715.47,5034.6C4716.69,5034.69 4718.1,5034.39 4719.25,5032.82C4719.57,5032.38 4720.27,5031.03 4720.44,5028.14C4720.79,5022.38 4723.85,4991.55 4725.14,4983.8C4727.78,4982.2 4734.08,4979.68 4739.83,4979.8C4743.12,4979.86 4746.3,4980.86 4747.88,4984.24C4754.36,4998.03 4759.61,5013.77 4761.68,5018.91C4762.93,5021.98 4763.9,5024.07 4764.51,5024.81C4765.69,5026.24 4767.03,5026.54 4768.01,5026.56C4769.17,5026.57 4770.36,5026.21 4771.39,5025.03C4771.85,5024.51 4772.67,5023.01 4773,5020.06C4773.5,5015.63 4772.64,4965.69 4772.46,4956.1C4772.89,4955.75 4773.43,4955.45 4774.01,4955.17C4776.16,4954.12 4778.98,4953.52 4781.82,4953.41C4784.16,4953.33 4786.53,4953.58 4788.55,4954.29C4790.05,4954.82 4791.38,4955.57 4792.11,4956.8C4792.5,4957.47 4792.64,4958.83 4792.84,4960.64C4793.26,4964.44 4793.39,4969.78 4793.33,4975.9C4793.28,4980.6 4793.11,4985.74 4792.87,4991C4784.26,5001.34 4784.08,5018.72 4789.69,5031.45C4789.21,5035.09 4788.64,5038.24 4788.56,5038.71C4787.98,5039.77 4786.75,5040.66 4785.35,5041.52C4782.37,5043.34 4778.46,5044.71 4775.05,5045.41C4772.21,5045.99 4768.45,5046.58 4764.75,5046.11C4761.65,5045.73 4758.55,5044.56 4756.39,5041.64C4751.28,5034.72 4744.5,5013.05 4743.49,5010.94C4741.78,5007.34 4738.31,5008.55 4737.75,5008.83C4737.35,5009.03 4735.01,5010.17 4735.5,5013.41C4735.9,5016.11 4732.27,5042.59 4731.72,5046.58C4731.39,5046.88 4730.46,5047.72 4729.54,5048.27C4726.92,5049.85 4722.92,5051.3 4717.89,5051.82C4704.35,5053.21 4699.6,5047.5 4699.58,5047.48ZM4951.18,5039.02C4959.96,5028.11 4962.62,5008.6 4955.75,4995.49C4957.25,4981.73 4958.62,4969.72 4959.03,4968.07C4959.89,4964.62 4960.82,4961.07 4965,4957.4C4977.4,4946.52 4994.4,4950.11 4994.4,4950.11C4994.53,4950.14 4994.66,4950.16 4994.79,4950.17C5000.31,4950.8 5004.25,4951.92 5006.97,4953.45C5008.9,4954.53 5010.09,4955.76 5010.65,4957.14C5011.48,4959.21 5010.9,4961.43 5010.1,4963.27C5009.44,4964.8 5008.18,4966.45 5007.59,4967.19C5007.03,4966.99 5006.01,4966.62 5005.19,4966.3C5003.15,4965.5 5000.51,4964.57 4996.84,4964.04C4987.26,4962.66 4982.06,4965.49 4979.12,4968.85C4974.48,4974.16 4975.43,4981.77 4975.43,4981.77C4975.68,4983.66 4977.2,4985.15 4979.1,4985.36L5001.9,4987.89C5003.08,4993.01 5002.81,4996.14 5001.61,4998.05C5000.4,4999.97 4998.21,4999.9 4997.91,4999.88C4997.9,4999.88 4978.81,4997.76 4978.81,4997.76C4976.52,4997.51 4974.46,4999.16 4974.2,5001.44L4969.02,5048.14C4959.12,5048.9 4954.36,5047.17 4952.2,5044.55C4950.68,5042.72 4950.99,5040.69 4950.99,5040.69C4951.02,5040.56 4951.03,5040.43 4951.05,5040.3L4951.18,5039.02ZM4699.58,5047.48L4699.58,5047.48L4699.63,5047.58L4699.63,5047.58C4699.61,5047.55 4699.6,5047.52 4699.58,5047.48ZM4917.18,4989.82C4925.45,4989.82 4932.17,4992.54 4932.17,4995.89C4932.17,4999.24 4925.45,5001.96 4917.18,5001.96C4908.91,5001.96 4902.19,4999.24 4902.19,4995.89C4902.19,4992.54 4908.91,4989.82 4917.18,4989.82ZM4826.79,4989.82C4835.06,4989.82 4841.78,4992.2 4841.78,4995.13C4841.78,4998.06 4835.06,5000.44 4826.79,5000.44C4818.52,5000.44 4811.81,4998.06 4811.81,4995.13C4811.81,4992.2 4818.52,4989.82 4826.79,4989.82ZM4895.23,4982.11C4877.18,4979.32 4859.81,4980.73 4849.62,4982.1C4858.52,4984.82 4863.12,4989.11 4864.49,4994.58C4866.6,4992.82 4869.88,4990.89 4873.88,4991.26C4876.06,4991.46 4878.48,4992.34 4881.03,4994.35C4882.37,4989.03 4886.78,4984.83 4895.23,4982.11Z" style="fill:rgb(191,81,17);"/>
                </g>
            </g>
        </g>
    </g>
</svg>
