<svg width="48" height="48" viewBox="0 0 48 48" fill="none" xmlns="http://www.w3.org/2000/svg">
<path d="M15.9286 19.9109C18.1279 19.9109 19.9108 18.128 19.9108 15.9287C19.9108 13.7294 18.1279 11.9465 15.9286 11.9465C13.7293 11.9465 11.9465 13.7294 11.9465 15.9287C11.9465 18.128 13.7293 19.9109 15.9286 19.9109Z" stroke="#BF5111" stroke-width="2" stroke-linecap="round" stroke-linejoin="round"/>
<path d="M35.8395 21.9019C35.8395 21.9019 21.9019 27.8751 15.9287 27.8751C12.7603 27.8751 9.72162 26.6165 7.48122 24.3761C5.24082 22.1357 3.98218 19.0971 3.98218 15.9287C3.98218 12.7603 5.24082 9.72162 7.48122 7.48122C9.72162 5.24082 12.7603 3.98218 15.9287 3.98218C21.9019 3.98218 35.8395 9.95542 35.8395 9.95542M35.8395 21.9019V9.95542M35.8395 21.9019L43.8038 25.8841V5.97326L35.8395 9.95542" stroke="#BF5111" stroke-width="2" stroke-linecap="round" stroke-linejoin="round"/>
<path d="M13.9376 27.6761L15.5304 37.8306C15.7295 38.8261 16.7251 39.8217 17.9197 39.8217H21.9019C23.0965 39.8217 23.6939 39.0252 23.4947 37.8306L21.7028 26.8796M23.1762 35.8395C23.1762 35.8395 29.7467 31.8573 37.7111 31.8573C38.7672 31.8573 39.7801 32.2769 40.5269 33.0237C41.2737 33.7705 41.6932 34.7834 41.6932 35.8395C41.6932 36.8956 41.2737 37.9085 40.5269 38.6553C39.7801 39.4021 38.7672 39.8217 37.7111 39.8217H33.8484C32.7922 39.8217 31.7794 40.2412 31.0326 40.988C30.2858 41.7348 29.8662 42.7477 29.8662 43.8038" stroke="#BF5111" stroke-width="2" stroke-linecap="round" stroke-linejoin="round"/>
</svg>
