<?xml version="1.0" encoding="UTF-8" standalone="no"?>
<!DOCTYPE svg PUBLIC "-//W3C//DTD SVG 1.1//EN" "http://www.w3.org/Graphics/SVG/1.1/DTD/svg11.dtd">
<svg width="100%" height="100%" viewBox="0 0 45 45" version="1.1" xmlns="http://www.w3.org/2000/svg" xmlns:xlink="http://www.w3.org/1999/xlink" xml:space="preserve" xmlns:serif="http://www.serif.com/" style="fill-rule:evenodd;clip-rule:evenodd;stroke-linejoin:round;stroke-miterlimit:2;">
    <g transform="matrix(1,0,0,1,-8238.89,-3928.39)">
        <g transform="matrix(1.17732,0,0,1,0,0)">
            <g transform="matrix(0.849386,0,0,1,67.2245,3.33744)">
                <path d="M8175.76,3927.14C8171.99,3928.18 8168.44,3930.24 8165.59,3933.32C8157.38,3942.14 8157.88,3955.97 8166.7,3964.17C8175.53,3972.38 8189.36,3971.88 8197.56,3963.05C8199.81,3960.64 8201.4,3957.85 8202.35,3954.9C8205.07,3947.15 8204.08,3928.68 8204.08,3928.68C8203.94,3926.95 8203.09,3925.93 8201.33,3925.76C8189.89,3924.38 8181.74,3925.1 8175.76,3927.14ZM8196.42,3952.94L8196.45,3952.85C8198.31,3947.55 8198.15,3936.69 8197.96,3931.68C8189.07,3930.83 8182.57,3931.41 8177.7,3933.08L8177.49,3933.14C8174.77,3933.88 8172.22,3935.36 8170.16,3937.57C8164.99,3943.13 8164.66,3951.48 8168.99,3957.39C8173.32,3947.89 8191.4,3937.44 8183.17,3945.61C8179,3949.73 8175.78,3957.63 8174.24,3961.94C8180.33,3965.18 8188.07,3964.08 8192.99,3958.8C8194.59,3957.07 8195.73,3955.07 8196.41,3952.96L8196.42,3952.94ZM8175.76,3927.14L8175.74,3927.14L8175.76,3927.14Z" style="fill:rgb(249,180,38);"/>
            </g>
        </g>
    </g>
</svg>
