<svg width="48" height="48" viewBox="0 0 48 48" fill="none" xmlns="http://www.w3.org/2000/svg">
<path d="M23.8938 11.9465C24.9827 11.9465 26.0093 11.7909 26.9738 11.4798C27.9382 11.1687 28.9026 10.8265 29.867 10.4532C30.8315 10.0798 31.7881 9.73763 32.737 9.42652C33.6859 9.11542 34.7203 8.95986 35.8403 8.95986V11.9465C35.1558 11.9465 34.5025 12.0165 33.8803 12.1565C33.2581 12.2965 32.6514 12.4831 32.0603 12.7165C31.4692 12.9498 30.8626 13.1909 30.2404 13.4398C29.6182 13.6887 28.9882 13.9298 28.3504 14.1631C27.7126 14.3964 27.0204 14.5753 26.2738 14.6998C25.5271 14.8242 24.7338 14.902 23.8938 14.9331C23.0383 14.9331 22.2449 14.8631 21.5138 14.7231C20.7827 14.5831 20.0905 14.3964 19.4372 14.1631C18.7839 13.9298 18.1617 13.6887 17.5706 13.4398C16.9795 13.1909 16.3728 12.9498 15.7506 12.7165C15.1284 12.4831 14.5139 12.3043 13.9073 12.1798C13.3006 12.0554 12.6473 11.9776 11.9473 11.9465V8.95986C13.0206 8.95986 14.0473 9.11542 15.0273 9.42652C16.0073 9.73763 16.9717 10.0798 17.9206 10.4532C18.8694 10.8265 19.8339 11.1687 20.8138 11.4798C21.7938 11.7909 22.8205 11.9465 23.8938 11.9465ZM47.7868 13.5098C47.7868 16.2631 47.5845 19.063 47.1801 21.9097C46.7757 24.7563 46.1846 27.5796 45.4068 30.3795C44.629 33.1795 43.6491 35.8939 42.4668 38.5227C41.2846 41.1516 39.9391 43.6327 38.4302 45.966C38.0569 46.526 37.5825 46.9693 37.0069 47.2959C36.4314 47.6226 35.8014 47.7859 35.117 47.7859C34.2614 47.7859 33.4914 47.5448 32.807 47.0626C32.1226 46.5804 31.6481 45.9271 31.3837 45.1026L27.2304 32.6895C26.686 32.7517 26.1338 32.7906 25.5738 32.8062C25.0138 32.8217 24.4538 32.8373 23.8938 32.8528C23.3338 32.8528 22.7738 32.845 22.2138 32.8295C21.6538 32.8139 21.1016 32.7673 20.5572 32.6895L16.4039 45.1026C16.1395 45.9115 15.665 46.5571 14.9806 47.0393C14.2962 47.5215 13.5262 47.7704 12.6706 47.7859C11.9862 47.7859 11.3562 47.6226 10.7807 47.2959C10.2051 46.9693 9.73068 46.526 9.35736 45.966C7.83293 43.6482 6.4874 41.1749 5.32075 38.5461C4.1541 35.9172 3.1819 33.2028 2.40413 30.4029C1.62636 27.6029 1.02748 24.7796 0.607491 21.933C0.187497 19.0864 -0.014722 16.2786 0.000833321 13.5098C0.000833321 11.7676 0.265274 10.0876 0.794154 8.46987C1.32304 6.85212 2.09302 5.41325 3.10412 4.15327C4.11521 2.89329 5.35964 1.88997 6.83739 1.14332C8.31515 0.396661 10.0029 0.0155553 11.9006 0C13.0051 0 14.0395 0.155553 15.0039 0.466659C15.9684 0.777766 16.9328 1.11998 17.8972 1.49331C18.8617 1.86664 19.8183 2.20885 20.7672 2.51996C21.7161 2.83107 22.7583 2.98662 23.8938 2.98662C24.9982 2.98662 26.0327 2.83107 26.9971 2.51996C27.9615 2.20885 28.9259 1.86664 29.8904 1.49331C30.8548 1.11998 31.8115 0.777766 32.7603 0.466659C33.7092 0.155553 34.7514 0 35.8869 0C37.7847 0 39.4724 0.373328 40.9502 1.11998C42.428 1.86664 43.6724 2.86996 44.6835 4.12994C45.6946 5.38992 46.4646 6.82878 46.9934 8.44654C47.5223 10.0643 47.7868 11.752 47.7868 13.5098ZM44.8001 13.5565C44.8001 12.1098 44.6057 10.7487 44.2168 9.47319C43.8279 8.19765 43.2446 7.07767 42.4668 6.11324C41.6891 5.14881 40.7091 4.3866 39.5269 3.82661C38.3447 3.26662 36.9836 2.98662 35.4436 2.98662C34.5414 2.98662 33.6781 3.14217 32.8537 3.45328C32.0292 3.76439 31.1581 4.1066 30.2404 4.47993C29.3226 4.85326 28.3582 5.19548 27.3471 5.50658C26.336 5.81769 25.1849 5.97324 23.8938 5.97324C22.6027 5.97324 21.4516 5.81769 20.4405 5.50658C19.4294 5.19548 18.465 4.85326 17.5472 4.47993C16.6295 4.1066 15.7428 3.76439 14.8873 3.45328C14.0317 3.14217 13.0829 2.98662 12.0406 2.98662C10.5318 2.98662 9.20958 3.28217 8.07404 3.87327C6.9385 4.46438 5.99741 5.24992 5.25075 6.2299C4.5041 7.20989 3.93633 8.32987 3.54745 9.58985C3.15856 10.8498 2.9719 12.172 2.98745 13.5565C2.98745 15.0809 3.07301 16.722 3.24412 18.4797C3.41523 20.2375 3.67967 22.0574 4.03744 23.9396C4.39521 25.8218 4.82298 27.6962 5.32075 29.5629C5.81852 31.4295 6.40185 33.265 7.07072 35.0695C7.7396 36.8739 8.47848 38.5539 9.28736 40.1094C10.0962 41.6649 10.9673 43.0804 11.9006 44.356C12.134 44.6515 12.4295 44.7993 12.7873 44.7993C12.974 44.7993 13.2151 44.5193 13.5106 43.9593C13.8062 43.3993 14.1173 42.6682 14.4439 41.766C14.7706 40.8638 15.1206 39.8838 15.4939 38.8261C15.8673 37.7683 16.2017 36.7339 16.4972 35.7228C16.7928 34.7117 17.0806 33.7939 17.3606 32.9695C17.6406 32.1451 17.8272 31.5462 17.9206 31.1729C18.045 30.7684 18.2783 30.4184 18.6205 30.1229C18.9628 29.8273 19.3672 29.6718 19.8339 29.6562C20.5183 29.6562 21.195 29.6873 21.8638 29.7495C22.5327 29.8118 23.2094 29.8507 23.8938 29.8662C24.5782 29.8662 25.2549 29.8351 25.9238 29.7729C26.5926 29.7107 27.2693 29.6718 27.9537 29.6562C28.4048 29.6562 28.8015 29.804 29.1437 30.0995C29.4859 30.3951 29.727 30.7529 29.867 31.1729C29.9915 31.5462 30.1781 32.1451 30.427 32.9695C30.6759 33.7939 30.9559 34.7039 31.267 35.6995C31.5781 36.695 31.9203 37.7372 32.2937 38.8261C32.667 39.9149 33.0092 40.8949 33.3203 41.766C33.6314 42.6371 33.9503 43.3604 34.277 43.936C34.6036 44.5115 34.8447 44.7993 35.0003 44.7993C35.3581 44.7993 35.6536 44.6515 35.8869 44.356C36.8203 43.1116 37.6914 41.696 38.5002 40.1094C39.3091 38.5227 40.0402 36.8428 40.6935 35.0695C41.3469 33.2962 41.9302 31.4684 42.4435 29.5862C42.9568 27.704 43.3846 25.8296 43.7268 23.963C44.069 22.0963 44.3335 20.2764 44.5201 18.503C44.7068 16.7297 44.8001 15.0809 44.8001 13.5565Z" fill="#BF5111"/>
</svg>
