<svg width="24" height="24" viewBox="0 0 24 24" fill="none" xmlns="http://www.w3.org/2000/svg">
<path fill-rule="evenodd" clip-rule="evenodd" d="M14.5552 3.31544C14.3579 2.9699 14.3059 2.56013 14.4107 2.17627C14.5155 1.79241 14.7685 1.4659 15.1141 1.26858C15.4596 1.07126 15.8694 1.01929 16.2532 1.12409C16.6371 1.2289 16.9636 1.4819 17.1609 1.82744L20.4009 7.50001H21.2546C21.6644 7.49315 22.0689 7.5823 22.4375 7.75887C22.8095 7.93715 23.1352 8.19944 23.3906 8.52173C23.6461 8.84401 23.8261 9.21772 23.9221 9.61715C24.0181 10.0166 24.0249 10.4297 23.9495 10.8309L22.1529 20.2577V20.2612C22.0312 20.8886 21.7021 21.4612 21.2101 21.8726C20.7208 22.2861 20.0986 22.5089 19.4581 22.5H4.54378C3.90346 22.5094 3.2813 22.2872 2.79178 21.8743C2.3017 21.4607 1.96879 20.8911 1.84892 20.2612V20.2577L0.0523513 10.8326C-0.0257191 10.43 -0.0163767 10.0136 0.0797461 9.61488C0.175869 9.21619 0.356528 8.84281 0.609494 8.52001C0.866637 8.19772 1.19064 7.93715 1.56264 7.75715C1.93121 7.58058 2.33578 7.49144 2.74549 7.4983H3.60092L6.84264 1.82401C7.04019 1.47847 7.36691 1.22556 7.75093 1.12092C8.13495 1.01627 8.54481 1.06846 8.89035 1.26601C9.23589 1.46356 9.4888 1.79028 9.59345 2.1743C9.69809 2.55832 9.6459 2.96819 9.44835 3.31373L7.05692 7.49658H16.9484L14.5552 3.31544ZM21.2872 9.64115C21.3626 9.64115 21.4369 9.6583 21.5101 9.69258C21.5855 9.72687 21.6529 9.78058 21.7124 9.85373C21.7718 9.92801 21.8135 10.0154 21.8375 10.116C21.8615 10.2189 21.8638 10.3217 21.8444 10.4246V10.428L20.0495 19.8532C20.0202 19.9998 19.9437 20.1328 19.8318 20.232C19.7371 20.3138 19.6158 20.3583 19.4906 20.3572H4.51121C4.38605 20.3583 4.26476 20.3138 4.17007 20.232C4.05844 20.1333 3.98202 20.0009 3.95235 19.8549L2.15749 10.428V10.4246C2.13825 10.3255 2.14006 10.2235 2.1628 10.1251C2.18554 10.0268 2.22871 9.93431 2.28949 9.85373C2.34162 9.78389 2.41064 9.72843 2.49007 9.69258C2.56007 9.65868 2.63685 9.64109 2.71464 9.64115L2.73864 9.64287L21.2872 9.64115Z" fill="#FEF6E7"/>
</svg>
