<svg width="23" height="23" viewBox="0 0 23 23" fill="none" xmlns="http://www.w3.org/2000/svg">
<path d="M5.87543 21.2063C4.71783 21.0729 3.63961 20.5511 2.81674 19.726C1.99386 18.901 1.47491 17.8214 1.34457 16.6634C1.15771 14.9131 1 13.1149 1 11.284C1 9.45314 1.15771 7.65486 1.34457 5.90457C1.47491 4.74662 1.99386 3.66703 2.81674 2.84198C3.63961 2.01692 4.71783 1.49512 5.87543 1.36171C7.636 1.16971 9.44286 1 11.2857 1C13.1286 1 14.9371 1.16971 16.696 1.36514C17.8533 1.49891 18.9311 2.02087 19.7536 2.84589C20.5762 3.67092 21.0949 4.75031 21.2251 5.908C21.4137 7.65657 21.5714 9.45486 21.5714 11.2857C21.5714 13.1166 21.4137 14.9149 21.2269 16.6651C21.0965 17.8231 20.5776 18.9027 19.7547 19.7277C18.9318 20.5528 17.8536 21.0746 16.696 21.208C15.7174 21.3191 14.7366 21.4105 13.7543 21.4823V16.2211H17.0457V12.1069H13.7543V10.4611C13.7543 9.55257 14.4914 8.81543 15.4 8.81543H17.0457V6.34686C17.0457 5.91039 16.8723 5.49179 16.5637 5.18316C16.2551 4.87453 15.8365 4.70114 15.4 4.70114H14.5771C13.2677 4.70114 12.0119 5.2213 11.0861 6.1472C10.1602 7.07309 9.64 8.32887 9.64 9.63829V12.1069H6.34857V16.2211H9.64V21.5286C8.38207 21.4607 7.12659 21.3532 5.87543 21.2063Z" stroke="#F2A413" stroke-width="2" stroke-linecap="round" stroke-linejoin="round"/>
</svg>
