<?xml version="1.0" encoding="UTF-8" standalone="no"?>
<!DOCTYPE svg PUBLIC "-//W3C//DTD SVG 1.1//EN" "http://www.w3.org/Graphics/SVG/1.1/DTD/svg11.dtd">
<svg width="100%" height="100%" viewBox="0 0 1040 269" version="1.1" xmlns="http://www.w3.org/2000/svg" xmlns:xlink="http://www.w3.org/1999/xlink" xml:space="preserve" xmlns:serif="http://www.serif.com/" style="fill-rule:evenodd;clip-rule:evenodd;stroke-linejoin:round;stroke-miterlimit:2;">
    <g transform="matrix(1,0,0,1,-4438.04,-5252.99)">
        <g transform="matrix(1.59504,0,0,1.30688,0,0)">
            <g transform="matrix(0.738112,0,0,0.765181,-874.946,1337.08)">
                <g>
                    <g transform="matrix(0.849386,0,0,1,4268.41,2229.94)">
                        <path d="M1779.95,1361.99L1779.95,1428.21C1779.95,1428.21 1779.13,1445.5 1807.13,1437.44L1807.13,1406.36L1835.23,1406.36C1835.23,1406.36 1847.75,1402.65 1839.9,1384.73L1806.6,1384.73L1806.6,1368.18L1839.9,1368.18C1839.9,1368.18 1853.48,1365.04 1844.78,1347.02L1790.8,1347.02C1790.8,1347.02 1780.35,1347.34 1779.95,1361.99Z"/>
                    </g>
                    <g transform="matrix(0.849386,0,0,1,5322.29,3128.55)">
                        <path d="M261.315,456.27L261.315,526.733C261.315,526.733 259.788,538.532 281,541.184C302.212,543.835 328.726,542.775 337.211,524.347C345.696,505.919 331.61,492.939 323.158,490.673C320.358,489.922 322.552,489.824 323.803,489.769C325.054,489.713 339.761,485.335 336.897,467.729C334.034,450.123 311.761,445.563 297.125,445.563C282.489,445.563 262.837,446.827 261.315,456.27ZM287.319,502.322L287.319,520.055C287.319,520.055 310.821,524.976 312.009,511.825C313.197,498.673 288.761,502.322 287.319,502.322ZM287.283,466.36L287.283,483.224C287.283,483.224 309.513,486.554 310.035,475.463C310.556,464.372 291.986,465.699 287.283,466.36Z"/>
                    </g>
                    <g transform="matrix(0.849386,0,0,1,4982.75,3391.92)">
                        <path d="M771.92,189.464C771.92,189.464 749.648,251.403 747.845,263.494C746.042,275.585 754.42,282.744 773.405,275.744L777.753,257.077L804.48,256.759L807.768,271.395C807.768,271.395 816.024,285.713 836.404,272.456C836.404,272.456 818.073,201.025 812.027,191.48C805.982,181.934 793.785,182.783 790.285,182.358C786.785,181.934 774.449,185.222 771.92,189.464ZM791.845,207.124C791.845,207.124 797.546,230.192 800.33,235.76L782.698,235.76C782.698,235.76 789.989,214.813 791.845,207.124Z"/>
                    </g>
                    <g transform="matrix(0.849386,0,0,1,5000.78,3430.88)">
                        <path d="M589.151,215.418C588.942,215.506 588.341,215.958 588.147,216.084C586.898,216.89 586.173,218.141 586.245,219.626C586.245,219.626 586.48,223.922 586.284,228.097C586.284,228.097 568.917,210.949 568.917,210.949C568.619,210.399 568.408,209.23 568.371,208.614C568.313,207.641 568.441,207.441 568.698,207.185C569.299,206.583 571.399,206.501 572.461,206.641C574.359,206.893 574.672,206.999 576.006,207.575C576.314,207.708 576.591,207.96 576.796,208.065C576.796,208.065 579.333,209.533 582.638,208.055C584.553,207.199 587.281,204.917 588.954,198.405C591.664,187.853 581.981,174.055 558.227,179.203C535.598,184.107 532.011,204.452 535.585,214.361C536.292,216.322 537.115,217.926 537.993,219.224C532.786,222.263 525.696,227.857 522.779,237.44C519.951,246.734 520.607,263.415 532.245,274.157C539.739,281.073 552.293,285.458 570.508,282.797C580.639,281.318 586.503,278.442 589.815,276.143C589.815,276.143 593.409,279.782 593.409,279.782C593.57,279.943 594.189,280.554 594.374,280.687C594.374,280.687 601.04,285.37 608.731,283.131C613.412,281.769 618.047,278.316 622.288,268.147C623.089,266.226 623.032,264.46 621.874,263.302L611.645,253.039C613.243,248.777 616.426,239.414 616.797,230.943C617.033,225.563 615.492,220.432 613.007,217.745C610.818,215.378 607.518,213.446 603.097,213.077C594.433,212.355 590.007,214.868 589.151,215.418ZM579.526,200.036C578.071,199.321 575.766,198.471 572.498,198.318C567.649,198.09 564.571,199.31 562.328,201.722C560.457,203.733 559.897,206.532 560.091,209.082C560.323,212.119 561.501,214.831 561.501,214.831C561.711,215.288 562.188,216.021 562.547,216.374L586.126,239.635C587.113,240.607 588.599,240.865 589.957,240.59C591.315,240.314 592.447,239.196 592.977,237.916C594.52,234.195 594.525,226.301 594.508,222.022C596.075,221.457 598.495,221.043 602.246,221.355C604.147,221.514 605.761,222.185 606.697,223.208C608.374,225.043 608.569,227.827 608.466,230.847C608.13,240.681 603.034,252.203 603.069,252.146C603.436,251.552 601.364,254.58 603.775,256.93C603.966,257.117 613.808,266.966 613.808,266.966C611.528,271.941 609.133,274.372 606.504,275.137C603.239,276.087 600.42,274.644 599.42,273.903C598.058,272.895 592.853,267.604 592.853,267.604C592.853,267.604 591.305,265.983 589.158,266.497C587.667,266.854 585.949,268.663 585.949,268.663C585.949,268.663 581.707,272.826 569.43,274.475C553.98,276.551 544.255,274.136 537.641,268.142C528.903,260.223 528.477,246.93 530.752,239.867C534.146,229.326 544.867,225.011 544.867,225.011L546.726,224.224C548.033,224.066 551.432,219.725 547.358,216.983C546.966,216.72 544.77,215.273 543.49,211.762C540.892,204.632 544.042,190.674 559.945,187.289C569.451,185.266 575.903,186.749 579.139,190.298C580.781,192.099 581.429,194.283 580.896,196.519C580.543,198.003 579.902,199.365 579.526,200.036ZM559.683,233.71C558.458,232.484 556.602,231.948 554.549,232.859C552.768,233.649 549.453,236.899 547.519,241.697C545.501,246.706 545.407,252.932 549.953,257.537C554.357,261.999 559.939,263.287 565.048,263.062C572.027,262.754 577.965,259.265 577.965,259.265C579.143,258.652 579.683,257.83 579.885,256.518C580.087,255.206 579.613,253.639 578.674,252.7L559.683,233.71ZM556.572,242.226L568.238,254.168C567.054,254.434 565.517,254.638 564.167,254.697C561.215,254.828 557.996,254.065 555.451,251.486C553.546,249.556 554.403,246.911 555.249,244.812C555.603,243.932 555.99,243.038 556.572,242.226Z"/>
                    </g>
                    <g transform="matrix(0.849386,0,0,1,4982.75,3391.92)">
                        <path d="M847.394,195.873L847.725,264.315C847.725,264.315 843.417,283.124 874.737,275.832L874.737,247.826L881.532,247.826L896.281,270.529C896.281,270.529 909.786,291.931 927.104,267.381L906.721,241.363C906.721,241.363 924.453,231.42 923.127,212.86C921.801,194.299 906.731,179.904 880.869,181.207C856.094,182.456 847.172,185.7 847.394,195.873ZM874.177,204.465L874.177,225.995C874.177,225.995 894.01,229.283 895.07,215.813C896.142,202.196 877.04,203.934 874.177,204.465Z"/>
                    </g>
                    <g transform="matrix(0.849386,0,0,1,1185.38,-1747.41)">
                        <path d="M4995.84,5313.49C5010.7,5315.2 5016.56,5320.73 5018.49,5325.98C5020.11,5330.37 5019.19,5335.09 5017.4,5338.86C5015.6,5342.66 5012.94,5345.4 5011.81,5346.11C5009.95,5347.28 5008.19,5347.49 5006.12,5347.04C5003.99,5346.58 5001.18,5344.67 4995.62,5343.87C4990.16,5343.08 4987.04,5344 4985.37,5345.91C4984.51,5346.89 4984.06,5348.04 4983.82,5349.08L5005.63,5351.5C5007.31,5351.69 5008.71,5352.87 5009.18,5354.49C5012.13,5364.77 5010.77,5370.68 5008.62,5374.08C5004.6,5380.46 4997.07,5379.76 4997.07,5379.76C4997.05,5379.76 4997.02,5379.75 4997,5379.75C4997,5379.75 4981.99,5378.09 4981.99,5378.09L4976.9,5423.99C4976.68,5425.91 4975.17,5427.44 4973.25,5427.66C4956.43,5429.67 4949.06,5425.45 4945.74,5421.44C4944.53,5419.97 4943.77,5418.44 4943.3,5417.01L4943.26,5417.03C4924.43,5425.91 4901.04,5409.56 4889.49,5392.07C4883.72,5383.32 4880.25,5375.42 4880.56,5368.9C4878.07,5366.59 4875.73,5365.57 4873.62,5365.37C4869.51,5364.99 4866.36,5367.64 4864.89,5369.19C4865.17,5375.69 4861.71,5383.56 4855.96,5392.27C4844.41,5409.76 4821.02,5426.12 4802.2,5417.24C4800.07,5416.23 4798.12,5414.82 4796.36,5413.09C4796.27,5413.39 4796.18,5413.62 4796.1,5413.78C4794.97,5416.1 4792.69,5418.36 4789.67,5420.21C4785.91,5422.51 4780.99,5424.28 4776.69,5425.15C4769.04,5426.72 4756.58,5427.54 4749.66,5418.17C4747.36,5415.07 4744.52,5408.74 4742.02,5402.52C4740.98,5411.28 4739.88,5419.77 4739.88,5419.77L4739.88,5419.75C4739.7,5421.11 4738.81,5423.09 4736.64,5424.96C4733.57,5427.62 4727.32,5430.8 4718.72,5431.69C4698.11,5433.81 4692.82,5424.36 4692.11,5422.83C4678.34,5399.98 4664.3,5341.6 4664.3,5341.6C4664.08,5340.68 4664.18,5339.71 4664.59,5338.85C4665.92,5336.02 4668.53,5333.53 4671.94,5331.73C4676.35,5329.38 4682.14,5328.14 4687.38,5328.4C4694.17,5328.74 4699.9,5331.69 4702.06,5336.88C4704.57,5342.94 4710.13,5363.06 4714.07,5378.12C4715.24,5366.82 4716.61,5354.88 4717.23,5352.23C4717.38,5351.62 4717.75,5350.65 4718.79,5349.7C4719.7,5348.87 4722.04,5347.41 4725.22,5346.11C4729.41,5344.39 4735.14,5342.85 4740.45,5343.06C4746.7,5343.31 4752.37,5345.83 4755.4,5352.28C4759.02,5359.99 4762.26,5368.3 4764.8,5375.07C4764.65,5355.89 4764.07,5326.24 4764.07,5326.24C4764.06,5325.42 4764.28,5324.61 4764.73,5323.92C4767.25,5319.98 4774.2,5316.94 4781.49,5316.67C4788.86,5316.4 4796.16,5318.93 4799.24,5324.13C4799.85,5325.16 4800.44,5326.9 4800.82,5329.28C4801.47,5333.37 4801.71,5339.9 4801.63,5347.57C4801.6,5350.24 4801.54,5353.06 4801.44,5355.96C4804.32,5354.2 4816.33,5348.14 4840.04,5351.62C4840.24,5351.65 4840.44,5351.68 4840.64,5351.71C4846.36,5350.58 4875.07,5345.53 4903.31,5351.75C4903.99,5351.63 4904.69,5351.52 4905.41,5351.41C4932.96,5347.37 4944.7,5356.21 4944.7,5356.21C4946.01,5356.84 4947.22,5357.56 4948.34,5358.38C4949.55,5347.57 4950.57,5339.01 4950.92,5337.62C4952.13,5332.78 4953.59,5327.88 4959.47,5322.72C4973.96,5310 4993.49,5313.06 4995.84,5313.49ZM4699.55,5419.06C4699.49,5418.95 4699.44,5418.84 4699.37,5418.73C4687.34,5398.99 4675.17,5350.94 4672.82,5341.35L4672.82,5341.35C4673.56,5340.46 4674.64,5339.73 4675.84,5339.09C4679.02,5337.4 4683.19,5336.53 4686.97,5336.72C4690.22,5336.89 4693.33,5337.58 4694.36,5340.07C4698.25,5349.48 4709.83,5394.09 4710.14,5396.71C4710.33,5398.27 4710.82,5401.05 4711.29,5402.51C4711.57,5403.37 4711.93,5404 4712.2,5404.37C4713.21,5405.75 4714.47,5406.12 4715.44,5406.18C4716.66,5406.27 4718.07,5405.97 4719.22,5404.4C4719.54,5403.96 4720.24,5402.61 4720.41,5399.72C4720.76,5393.96 4723.82,5363.13 4725.11,5355.39C4727.75,5353.78 4734.05,5351.26 4739.8,5351.38C4743.09,5351.44 4746.26,5352.44 4747.85,5355.82C4754.33,5369.62 4759.58,5385.35 4761.65,5390.49C4762.89,5393.56 4763.86,5395.65 4764.48,5396.39C4765.66,5397.82 4766.99,5398.12 4767.98,5398.14C4769.14,5398.15 4770.33,5397.79 4771.36,5396.61C4771.82,5396.09 4772.64,5394.59 4772.97,5391.64C4773.47,5387.21 4772.6,5337.27 4772.43,5327.68C4772.86,5327.33 4773.4,5327.03 4773.98,5326.75C4776.13,5325.7 4778.95,5325.1 4781.79,5325C4784.13,5324.91 4786.5,5325.16 4788.52,5325.87C4790.02,5326.4 4791.35,5327.15 4792.07,5328.38C4792.47,5329.05 4792.6,5330.41 4792.81,5332.22C4793.23,5336.02 4793.36,5341.36 4793.29,5347.48C4793.25,5352.18 4793.08,5357.32 4792.84,5362.58C4784.23,5372.92 4784.05,5390.3 4789.66,5403.03C4789.18,5406.67 4788.61,5409.82 4788.53,5410.29C4787.94,5411.35 4786.72,5412.24 4785.32,5413.1C4782.34,5414.92 4778.43,5416.29 4775.02,5416.99C4772.18,5417.57 4768.42,5418.16 4764.72,5417.69C4761.61,5417.31 4758.52,5416.15 4756.36,5413.22C4751.24,5406.3 4744.47,5384.63 4743.46,5382.52C4741.75,5378.92 4738.27,5380.13 4737.72,5380.41C4737.32,5380.61 4734.98,5381.75 4735.47,5384.99C4735.87,5387.69 4732.24,5414.17 4731.69,5418.16C4731.36,5418.46 4730.43,5419.3 4729.51,5419.85C4726.89,5421.43 4722.89,5422.88 4717.86,5423.4C4704.32,5424.79 4699.57,5419.08 4699.55,5419.06ZM4951.15,5410.6C4959.93,5399.69 4962.59,5380.18 4955.72,5367.07C4957.21,5353.31 4958.59,5341.3 4959,5339.65C4959.86,5336.2 4960.78,5332.65 4964.97,5328.98C4977.36,5318.1 4994.37,5321.69 4994.37,5321.69C4994.5,5321.72 4994.63,5321.74 4994.76,5321.75C5000.28,5322.38 5004.22,5323.5 5006.94,5325.03C5008.87,5326.11 5010.06,5327.34 5010.62,5328.72C5011.45,5330.79 5010.87,5333.01 5010.07,5334.85C5009.41,5336.38 5008.15,5338.03 5007.56,5338.77C5007,5338.57 5005.98,5338.2 5005.16,5337.88C5003.12,5337.08 5000.48,5336.15 4996.81,5335.62C4987.23,5334.24 4982.03,5337.07 4979.09,5340.43C4974.45,5345.74 4975.4,5353.35 4975.4,5353.35C4975.65,5355.24 4977.16,5356.73 4979.07,5356.94L5001.86,5359.47C5003.05,5364.59 5002.78,5367.72 5001.57,5369.63C5000.37,5371.55 4998.18,5371.48 4997.88,5371.46C4997.86,5371.46 4978.77,5369.34 4978.77,5369.34C4976.49,5369.09 4974.43,5370.74 4974.17,5373.03L4968.99,5419.72C4959.09,5420.49 4954.33,5418.75 4952.17,5416.13C4950.65,5414.3 4950.96,5412.27 4950.96,5412.27C4950.98,5412.14 4951,5412.01 4951.02,5411.88L4951.15,5410.6ZM4699.55,5419.06L4699.55,5419.06L4699.6,5419.16L4699.6,5419.16C4699.58,5419.13 4699.57,5419.1 4699.55,5419.06ZM4917.15,5361.4C4925.42,5361.4 4932.14,5364.12 4932.14,5367.47C4932.14,5370.82 4925.42,5373.54 4917.15,5373.54C4908.88,5373.54 4902.16,5370.82 4902.16,5367.47C4902.16,5364.12 4908.88,5361.4 4917.15,5361.4ZM4826.76,5361.4C4835.03,5361.4 4841.75,5363.78 4841.75,5366.71C4841.75,5369.64 4835.03,5372.02 4826.76,5372.02C4818.49,5372.02 4811.77,5369.64 4811.77,5366.71C4811.77,5363.78 4818.49,5361.4 4826.76,5361.4ZM4895.2,5353.69C4877.15,5350.9 4859.78,5352.31 4849.59,5353.68C4858.49,5356.4 4863.09,5360.69 4864.46,5366.16C4866.56,5364.4 4869.85,5362.47 4873.85,5362.84C4876.03,5363.04 4878.45,5363.92 4881,5365.93C4882.34,5360.61 4886.75,5356.41 4895.2,5353.69Z"/>
                    </g>
                </g>
            </g>
        </g>
        <g transform="matrix(1.59504,0,0,1.30688,0,0)">
            <g transform="matrix(0.408041,0,0,0.498013,2311.4,4004)">
                <g transform="matrix(1,0,0,1,-68.2997,-347.951)">
                    <path d="M1239.44,585.531L1222.57,606.143L1264.4,658.611L1368.96,652.09L1362.44,625.106L1268.45,647.368L1243.04,613.863L1273.24,600.919L1261.23,586.592L1239.44,585.531Z"/>
                </g>
                <g transform="matrix(1.35493,0,0,1.35493,-9941.16,-3142.96)">
                    <path d="M8229.43,2443.57C8233.42,2442.78 8253.5,2439.25 8273.23,2443.6C8273.71,2443.51 8274.2,2443.44 8274.7,2443.36C8293.96,2440.54 8302.17,2446.72 8302.17,2446.72C8317.96,2454.27 8314.31,2483.02 8301.15,2489.23C8288,2495.44 8271.65,2484.01 8263.58,2471.78C8259.54,2465.67 8257.12,2460.14 8257.34,2455.59C8255.59,2453.97 8253.96,2453.26 8252.48,2453.12C8249.61,2452.85 8247.41,2454.7 8246.38,2455.79C8246.57,2460.33 8244.16,2465.84 8240.14,2471.93C8232.06,2484.15 8215.71,2495.58 8202.56,2489.37C8189.4,2483.17 8185.75,2454.42 8201.55,2446.86C8201.55,2446.86 8209.75,2440.68 8229.01,2443.51C8229.15,2443.53 8229.29,2443.55 8229.43,2443.57ZM8282.91,2450.34C8288.69,2450.34 8293.38,2452.25 8293.38,2454.59C8293.38,2456.93 8288.69,2458.83 8282.91,2458.83C8277.13,2458.83 8272.43,2456.93 8272.43,2454.59C8272.43,2452.25 8277.13,2450.34 8282.91,2450.34ZM8219.73,2450.34C8225.51,2450.34 8230.2,2452.01 8230.2,2454.06C8230.2,2456.11 8225.51,2457.77 8219.73,2457.77C8213.95,2457.77 8209.25,2456.11 8209.25,2454.06C8209.25,2452.01 8213.95,2450.34 8219.73,2450.34ZM8267.57,2444.95C8254.95,2443.01 8242.81,2443.99 8235.68,2444.95C8241.9,2446.85 8245.12,2449.85 8246.08,2453.67C8247.55,2452.44 8249.84,2451.09 8252.64,2451.35C8254.17,2451.49 8255.85,2452.11 8257.64,2453.51C8258.58,2449.79 8261.66,2446.86 8267.57,2444.95Z"/>
                </g>
                <g transform="matrix(1,0,0,1,-310.303,0)">
                    <path d="M1676.56,283.143L1675.94,282.719L1699.95,269.342L1680.32,246.142L1711.65,226.648L1611.46,126.944L1562.42,156.474L1567.07,138.77L1532.72,159.527L1524.98,158.79L1530.74,149.668C1530.74,149.668 1537.46,136.081 1536.38,137.429C1531.92,142.957 1527.53,147.66 1527.53,147.66L1507.25,125.279L1500.79,76.7L1507.79,54.107L1584.21,103.364L1642.46,103.661L1698.02,31.097L1735.45,87.987L1742.25,141.36L1726.88,174.439L1763.34,219.221L1743.42,244.303L1765.34,264.485L1763.62,265.65L1617.7,444.22L1541.11,358.492L1541.11,314.925L1547.86,315.031L1554.08,351.254L1605.45,398.598L1676.56,283.143Z"/>
                </g>
            </g>
        </g>
    </g>
</svg>
