<svg width="24" height="24" viewBox="0 0 24 24" fill="none" xmlns="http://www.w3.org/2000/svg">
<path d="M15.8415 14.6049C17.3188 15.3023 18.5784 16.3886 19.4853 17.7474C20.3922 19.1061 20.9122 20.6861 20.9895 22.3179C20.9998 22.4674 20.9801 22.6174 20.9316 22.7592C20.8832 22.901 20.8069 23.0316 20.7072 23.1435C20.6075 23.2554 20.4865 23.3462 20.3513 23.4107C20.2161 23.4752 20.0693 23.512 19.9196 23.519C19.77 23.526 19.6204 23.503 19.4798 23.4514C19.3391 23.3998 19.2102 23.3207 19.1005 23.2186C18.9909 23.1165 18.9027 22.9935 18.8412 22.8569C18.7797 22.7202 18.7462 22.5727 18.7425 22.4229C18.6607 20.6897 17.9146 19.0546 16.6591 17.8569C15.4036 16.6592 13.7351 15.991 12 15.991C10.2648 15.991 8.59633 16.6592 7.34083 17.8569C6.08532 19.0546 5.33925 20.6897 5.25747 22.4229C5.23727 22.7163 5.10299 22.9901 4.8834 23.1857C4.66381 23.3813 4.37637 23.4831 4.08262 23.4694C3.78887 23.4557 3.51218 23.3275 3.31178 23.1122C3.11139 22.897 3.00323 22.6119 3.01047 22.3179C3.08762 20.6863 3.60736 19.1064 4.51399 17.7476C5.42062 16.3889 6.67995 15.3025 8.15697 14.6049C7.21049 13.8155 6.53017 12.7536 6.20855 11.5638C5.88693 10.374 5.93963 9.11397 6.35947 7.95517C6.77931 6.79637 7.54592 5.79503 8.55502 5.08734C9.56411 4.37966 10.7667 4 11.9992 4C13.2317 4 14.4343 4.37966 15.4434 5.08734C16.4525 5.79503 17.2191 6.79637 17.639 7.95517C18.0588 9.11397 18.1115 10.374 17.7899 11.5638C17.4683 12.7536 16.788 13.8155 15.8415 14.6049ZM15.75 9.99542C15.75 9.00086 15.3549 8.04703 14.6516 7.34377C13.9484 6.64051 12.9945 6.24542 12 6.24542C11.0054 6.24542 10.0516 6.64051 9.34832 7.34377C8.64506 8.04703 8.24997 9.00086 8.24997 9.99542C8.24997 10.99 8.64506 11.9438 9.34832 12.6471C10.0516 13.3503 11.0054 13.7454 12 13.7454C12.9945 13.7454 13.9484 13.3503 14.6516 12.6471C15.3549 11.9438 15.75 10.99 15.75 9.99542Z" fill="#111111"/>
</svg>
