<?xml version="1.0" encoding="UTF-8" standalone="no"?>
<!DOCTYPE svg PUBLIC "-//W3C//DTD SVG 1.1//EN" "http://www.w3.org/Graphics/SVG/1.1/DTD/svg11.dtd">
<svg width="100%" height="100%" viewBox="0 0 41 54" version="1.1" xmlns="http://www.w3.org/2000/svg" xmlns:xlink="http://www.w3.org/1999/xlink" xml:space="preserve" xmlns:serif="http://www.serif.com/" style="fill-rule:evenodd;clip-rule:evenodd;stroke-linejoin:round;stroke-miterlimit:2;">
    <g transform="matrix(1,0,0,1,-8578.23,-3920.61)">
        <g transform="matrix(1.17732,0,0,1,0,0)">
            <g transform="matrix(0.849386,0,0,1,67.2245,3.33744)">
                <path d="M8507.99,3944.74L8514.29,3951.34L8516.44,3953.5L8518.71,3951.44L8531.3,3939.41L8526.99,3934.89L8516.66,3944.76C8516.66,3944.76 8512.52,3940.42 8512.52,3940.42L8507.99,3944.74Z" style="fill:rgb(249,180,38);"/>
            </g>
        </g>
        <g transform="matrix(1.17732,0,0,1,0,0)">
            <g transform="matrix(0.849386,0,0,1,67.2245,3.33744)">
                <path d="M8519.47,3917.28C8519.02,3917.27 8518.57,3917.36 8518.14,3917.55C8518.14,3917.55 8504.33,3923.85 8501.55,3924.47C8499.72,3925 8498.97,3926.05 8499.1,3927.52L8499.1,3943.76L8499.1,3943.89C8499.1,3943.89 8499.87,3962.73 8517.97,3970.39C8518.46,3970.6 8518.95,3970.79 8519.45,3970.75C8519.95,3970.79 8520.48,3970.6 8520.97,3970.39C8539.07,3962.73 8539.83,3943.89 8539.83,3943.89L8539.84,3943.76L8539.84,3927.52C8539.97,3925.89 8538.98,3924.99 8537.39,3924.47C8534.61,3923.85 8520.8,3917.55 8520.8,3917.55C8520.37,3917.36 8519.91,3917.27 8519.47,3917.28ZM8519.47,3923.8C8516.59,3925.08 8509.43,3928.23 8505.35,3929.76C8505.35,3929.76 8505.35,3943.67 8505.35,3943.69C8505.42,3944.72 8506.52,3958.14 8519.47,3964.22C8532.45,3958.13 8533.52,3944.66 8533.59,3943.67C8533.59,3943.67 8533.59,3929.76 8533.59,3929.76C8529.51,3928.23 8522.34,3925.08 8519.47,3923.8Z" style="fill:rgb(249,180,38);"/>
            </g>
        </g>
    </g>
</svg>
