<svg width="48" height="48" viewBox="0 0 48 48" fill="none" xmlns="http://www.w3.org/2000/svg">
<path d="M23.893 1.99106C19.652 1.99106 16.6056 2.04017 14.7539 2.1384C13.1114 2.1992 11.4843 2.47841 9.91557 2.96868C8.31673 3.53813 6.86921 4.45801 5.65465 5.65664C4.44009 6.85527 3.54411 8.30278 2.9667 9.91556C2.47643 11.4843 2.19722 13.1114 2.13641 14.7539C2.03686 16.6136 1.98907 19.6519 1.98907 23.8929C1.98907 28.1339 2.03819 31.1803 2.13641 33.032C2.19615 34.6746 2.4749 36.2974 2.9667 37.8703C3.53819 39.4711 4.45601 40.9261 5.65465 42.1312C6.84134 43.3259 8.30279 44.2219 9.91557 44.7196C11.4706 45.2771 13.1013 45.5897 14.7539 45.6475C16.6116 45.747 19.652 45.7948 23.893 45.7948C28.134 45.7948 31.1803 45.7457 33.032 45.6475C34.6745 45.5867 36.3016 45.3075 37.8703 44.8172C39.4712 44.2457 40.9261 43.3279 42.1312 42.1292C43.3299 40.9241 44.2477 39.4691 44.8192 37.8683C45.311 36.2994 45.5898 34.6627 45.6495 33.03C45.749 31.1723 45.7968 28.132 45.7968 23.891C45.7968 19.6499 45.765 16.6235 45.6993 14.7917C45.6119 13.1286 45.3162 11.4831 44.8192 9.89365C44.2477 8.29284 43.3299 6.83792 42.1312 5.63274C40.9261 4.4341 39.4712 3.51627 37.8703 2.94478C36.3016 2.45452 34.6745 2.17531 33.032 2.1145C31.1743 2.01495 28.134 1.96716 23.893 1.96716V1.99106ZM22.328 41.8127C19.7196 41.8127 17.7087 41.7808 16.2751 41.7151C14.4897 41.6851 12.7159 41.422 10.9987 40.9326C10.0427 40.5622 9.17455 39.9963 8.44976 39.2712C7.72497 38.5461 7.15952 37.6776 6.78957 36.7215C6.30015 35.0043 6.03709 33.2305 6.00707 31.4451C5.94137 30.0115 5.90752 27.9806 5.90752 25.3922V22.2662C5.90752 19.6579 5.94137 17.6469 6.00707 16.2133C6.02515 14.427 6.28844 12.6517 6.78957 10.937C7.14172 9.97196 7.70055 9.09557 8.42693 8.36918C9.15332 7.6428 10.0297 7.08396 10.9947 6.73182C12.712 6.2424 14.4857 5.97934 16.2711 5.94932C17.7047 5.88362 19.7356 5.84977 22.324 5.84977H25.45C28.0583 5.84977 30.0693 5.88362 31.5029 5.94932C33.2892 5.9674 35.0645 6.23069 36.7792 6.73182C37.7446 7.08372 38.6214 7.64244 39.3481 8.36884C40.0749 9.09524 40.634 9.97176 40.9864 10.937C41.4861 12.6533 41.749 14.4214 41.7689 16.2133C41.8326 17.5819 41.8651 19.5995 41.8664 22.2662V25.3922C41.8664 28.0005 41.8326 30.0115 41.7689 31.4451C41.737 33.2311 41.4742 35.0091 40.9864 36.7215C40.6105 37.6748 40.0449 38.5419 39.3238 39.2701C38.5993 39.9956 37.7312 40.5618 36.7752 40.9326C35.0595 41.4289 33.2848 41.6921 31.4989 41.7151C30.1317 41.7815 28.114 41.814 25.446 41.8127H22.32H22.328ZM35.6284 9.35805C35.0878 9.35745 34.5593 9.51745 34.1098 9.81777C33.6604 10.1181 33.3103 10.5452 33.104 11.0448C32.8977 11.5444 32.8445 12.0941 32.9512 12.624C33.0578 13.1539 33.3195 13.6402 33.703 14.0212C33.9516 14.2813 34.2509 14.4876 34.5824 14.6273C34.9139 14.7671 35.2706 14.8372 35.6304 14.8335C35.9832 14.8402 36.3334 14.7711 36.6573 14.631C36.9812 14.4908 37.2712 14.2829 37.508 14.0212C38.0049 13.4956 38.3083 12.8166 38.3681 12.0958C38.3583 11.3724 38.0664 10.6814 37.5547 10.1701C37.043 9.65868 36.3518 9.36733 35.6284 9.35805ZM23.9009 12.8823C21.9758 12.8693 20.0834 13.3792 18.4254 14.3577C16.7655 15.3202 15.3859 16.6998 14.4234 18.3597C13.4563 20.0225 12.9469 21.9117 12.9469 23.8352C12.9469 25.7587 13.4563 27.6479 14.4234 29.3107C15.3837 30.9723 16.7638 32.3525 18.4254 33.3127C20.0882 34.2798 21.9774 34.7892 23.9009 34.7892C25.8244 34.7892 27.7136 34.2798 29.3764 33.3127C31.0381 32.3525 32.4182 30.9723 33.3785 29.3107C34.3455 27.6479 34.8549 25.7587 34.8549 23.8352C34.8549 21.9117 34.3455 20.0225 33.3785 18.3597C32.4159 16.6998 31.0363 15.3202 29.3764 14.3577C27.7185 13.3792 25.826 12.8693 23.9009 12.8823ZM23.9009 30.8816C22.9758 30.8811 22.0598 30.6979 21.2056 30.3425C20.3514 29.9872 19.5758 29.4667 18.9232 28.8109C17.6006 27.4916 16.8558 25.7013 16.8525 23.8332C16.8531 22.9081 17.0363 21.9921 17.3916 21.1379C17.747 20.2837 18.2674 19.5081 18.9232 18.8555C20.2425 17.5329 22.0328 16.7881 23.9009 16.7848C24.8261 16.7854 25.742 16.9686 26.5962 17.3239C27.4504 17.6792 28.226 18.1997 28.8786 18.8555C30.2012 20.1748 30.946 21.9651 30.9493 23.8332C30.9488 24.7584 30.7656 25.6743 30.4102 26.5285C30.0549 27.3827 29.5344 28.1583 28.8786 28.8109C27.5594 30.1335 25.769 30.8783 23.9009 30.8816Z" fill="#BF5111"/>
</svg>
